<?xml version="1.0" standalone="no"?>
<!DOCTYPE svg PUBLIC "-//W3C//DTD SVG 1.1//EN" "http://www.w3.org/Graphics/SVG/1.1/DTD/svg11.dtd" >
<svg xmlns="http://www.w3.org/2000/svg">
<metadata>
This is a custom SVG webfont generated by Font Squirrel.
Designer    : Adrian Frutiger
Foundry URL : httpwwwadobecomtype
</metadata>
<defs>
<font id="webfontoAi7eDcW" horiz-adv-x="556" >
<font-face units-per-em="1000" ascent="654" descent="-346" />
<missing-glyph horiz-adv-x="278" />
<glyph unicode="&#xfb01;" horiz-adv-x="667" d="M18 369v108h62v45q0 46 23.5 80.5t61.5 52.5t79 26.5t85 8.5q37 0 63.5 -1.5t60 -6.5t57 -16.5t45.5 -28.5t34 -45t15 -65h-207q0 30 -19 44q-15 11 -43 11q-27 0 -47 -16t-20 -51v-38h334v-369h50v-108h-286v108h48v261h-146v-261h48v-108h-292v108h56v261h-62z" />
<glyph unicode="&#xfb02;" horiz-adv-x="667" d="M18 369v108h62v37q0 176 257 176q104 0 265 -23v-559h50v-108h-286v108h48v469q-27 5 -47 5q-99 0 -99 -79v-26h67v-108h-67v-261h48v-108h-292v108h56v261h-62z" />
<glyph unicode=" "  horiz-adv-x="278" />
<glyph unicode="&#x09;" horiz-adv-x="278" />
<glyph unicode="&#xa0;" horiz-adv-x="278" />
<glyph unicode="!" horiz-adv-x="389" d="M126 215l-33 439h204l-33 -439h-138zM111 0v163h168v-163h-168z" />
<glyph unicode="&#x22;" d="M322 359v295h144v-295h-144zM90 359v295h144v-295h-144z" />
<glyph unicode="#" d="M184 654h106l-27 -183h85l27 183h106l-28 -183h71v-88h-83l-16 -112h69v-88h-83l-27 -183h-106l27 183h-85l-27 -183h-106l28 183h-83v88h96l16 112h-82v88h95zM335 383h-85l-16 -112h85z" />
<glyph unicode="$" d="M34 0v208h154q0 -43 23 -78.5t64 -35.5q28 0 45 16.5t17 44.5q0 17 -6.5 32t-14.5 24.5t-26.5 21t-29.5 17.5t-37 18t-36 17q-73 33 -114.5 78t-41.5 123q0 70 49 123t120 59v83h130v-97q19 -6 26 -30h2v30h154v-203h-154v8q0 39 -16 69q-19 32 -60 32q-26 0 -44.5 -16.5 t-18.5 -42.5q0 -15 7 -28t14.5 -22t26.5 -19.5t29.5 -15.5t37.5 -16t37 -16q72 -32 113 -77t41 -129q0 -78 -47 -130t-125 -62v-83h-130v97q-22 9 -32 27h-3v-27h-154z" />
<glyph unicode="%" horiz-adv-x="889" d="M636 251q-42 0 -42 -87q0 -98 36 -98q41 0 41 102q0 83 -35 83zM632 331q79 0 116 -45.5t37 -123.5q0 -79 -37.5 -127.5t-117.5 -48.5q-75 0 -112.5 47t-37.5 121q0 78 36.5 127.5t115.5 49.5zM256 668q79 0 116 -45.5t37 -123.5q0 -79 -37.5 -127.5t-117.5 -48.5 q-75 0 -112.5 47t-37.5 121q0 78 36.5 127.5t115.5 49.5zM260 588q-42 0 -42 -87q0 -98 36 -98q41 0 41 102q0 83 -35 83zM279 -22h-94l424 698h94z" />
<glyph unicode="&#x26;" horiz-adv-x="778" d="M407 130l-133 133q-56 -31 -56 -82q0 -42 24.5 -64.5t62.5 -22.5q22 0 55 8.5t47 27.5zM299 449q61 36 65 76v5q0 16 -15 28q-18 15 -42 15q-26 0 -44.5 -12.5t-18.5 -32.5q0 -9 3 -18t10.5 -18t12.5 -14.5t16 -15.5zM395 351l115 -120q25 27 32 69h-43v108h242v-108h-65 q-12 -88 -72 -154l139 -38v-108h-214l-37 41q-77 -55 -205 -55q-109 0 -180.5 51t-71.5 155q0 64 35 105.5t100 78.5q-75 68 -75 133q0 80 63 119.5t148 39.5q83 0 145.5 -36t62.5 -113q0 -101 -119 -168z" />
<glyph unicode="'" horiz-adv-x="278" d="M67 359v295h144v-295h-144z" />
<glyph unicode="(" horiz-adv-x="333" d="M188 722h131q-108 -169 -108 -432q0 -262 112 -410h-130q-63 78 -99.5 191.5t-36.5 218.5q0 43 5.5 84.5t11 68.5t22.5 71t24.5 61.5t33.5 72.5z" />
<glyph unicode=")" horiz-adv-x="333" d="M145 -120h-131q108 169 108 432q0 262 -112 410h130q63 -78 99.5 -191.5t36.5 -218.5q0 -43 -5.5 -84.5t-11 -68.5t-22.5 -71t-24.5 -61.5t-33.5 -72.5z" />
<glyph unicode="*" d="M319 540l102 53l38 -115l-107 -18l74 -75l-97 -74l-52 95l-51 -97l-98 73l77 78l-108 16l36 117l102 -53l-19 114h122z" />
<glyph unicode="+" horiz-adv-x="600" d="M240 313v193h120v-193h193v-120h-193v-193h-120v193h-193v120h193z" />
<glyph unicode="," horiz-adv-x="278" d="M55 0v168h168v-168l-48 -148h-120l48 148h-48z" />
<glyph unicode="-" horiz-adv-x="333" d="M40 199v140h253v-140h-253z" />
<glyph unicode="." horiz-adv-x="278" d="M55 168h168v-168h-168v168z" />
<glyph unicode="/" horiz-adv-x="389" d="M296 668h119l-320 -682h-120z" />
<glyph unicode="0" d="M207 327q0 -227 71 -227t71 227t-71 227t-71 -227zM24 327q0 53 6.5 99t24 92t45 78t73 52t105.5 20t105.5 -20t73 -52t45 -78t24 -92t6.5 -99t-6.5 -99t-24 -92t-45 -78t-73 -52t-105.5 -20t-105.5 20t-73 52t-45 78t-24 92t-6.5 99z" />
<glyph unicode="1" d="M140 0v114h91v374l-164 -116v153l180 129h172v-540h76v-114h-355z" />
<glyph unicode="2" d="M27 0v144q16 16 75 66l104 90q47 42 87 97t40 95q0 25 -16.5 43.5t-41.5 18.5q-39 0 -55 -31q-13 -27 -13 -64v-10h-183v9q0 104 71 159q65 51 182 51q49 0 91 -10t77 -31.5t55.5 -59.5t20.5 -89q0 -36 -13.5 -68.5t-29 -52t-46.5 -52.5l-208 -191h154v78h154v-192h-505z " />
<glyph unicode="3" d="M220 273v114h25q51 0 71.5 20t20.5 71q0 32 -17 54t-45 22q-31 0 -47 -23t-16 -55v-16h-183q0 100 74 156q68 52 172 52q105 0 177.5 -46.5t72.5 -143.5q0 -64 -38.5 -99t-104.5 -45v-2q151 -16 151 -145q0 -59 -19.5 -99.5t-56 -62t-80.5 -30.5t-102 -9q-116 0 -184 48 t-68 149h182q0 -38 18 -59q19 -24 52 -24q37 0 53.5 27t16.5 66q0 80 -110 80h-15z" />
<glyph unicode="4" d="M486 654v-376h54v-114h-54v-61h50v-103h-315v103h87v61h-292v141l248 349h222zM308 278v236h-2l-157 -236h159z" />
<glyph unicode="5" d="M502 654v-114h-282v-167h2q29 60 116 60q93 0 145 -56.5t52 -149.5q0 -241 -254 -241q-47 0 -87 8t-75.5 26t-58 51t-28.5 78q-2 16 -2 28h189q0 -34 15 -55q17 -22 47 -22q36 0 51 35.5t15 76.5q0 107 -66 107q-55 0 -63 -68h-176v403h460z" />
<glyph unicode="6" d="M521 492h-176v7q0 21 -16 37q-18 18 -43 18q-80 0 -91 -151q-1 -6 -2.5 -20.5t-2.5 -21.5l2 -2q44 74 138 74t149 -57.5t55 -152.5q0 -118 -68.5 -177.5t-190.5 -59.5q-253 0 -253 322q0 360 281 360q96 0 156.5 -43t61.5 -133zM275 100q36 0 53.5 32t17.5 76 q0 111 -71 111q-39 0 -57 -36.5t-18 -79.5t18.5 -73t56.5 -30z" />
<glyph unicode="7" d="M536 654v-130l-234 -524h-199l250 540h-179v-102h-154v216h516z" />
<glyph unicode="8" d="M278 -14q-49 0 -91 9t-80.5 30t-61 60.5t-22.5 93.5q0 66 41.5 108.5t109.5 52.5v2q-70 11 -105 45.5t-35 103.5q0 46 22.5 81.5t59 55.5t77.5 30t85 10q45 0 86.5 -9.5t78 -29t58.5 -55.5t22 -83q0 -66 -38.5 -106.5t-104.5 -42.5v-2q67 -8 110 -51.5t43 -109.5 q0 -55 -21.5 -94.5t-60 -60t-81 -29.5t-92.5 -9zM278 396q35 0 53.5 24t18.5 59q0 36 -18.5 58.5t-53.5 22.5q-33 0 -52 -23.5t-19 -57.5q0 -36 18 -59.5t53 -23.5zM278 94q77 0 77 90q0 104 -77 104t-77 -104q0 -41 19 -65.5t58 -24.5z" />
<glyph unicode="9" d="M36 162h176v-7q0 -21 16 -37q18 -18 43 -18q79 0 90 151q0 5 6 42l-2 2q-44 -74 -138 -74t-149.5 57.5t-55.5 152.5q0 118 68.5 177.5t190.5 59.5q253 0 253 -322q0 -360 -281 -360q-95 0 -155.5 43t-61.5 133zM285 335q36 0 53.5 32t17.5 76q0 111 -71 111 q-39 0 -57 -36.5t-18 -79.5t18.5 -73t56.5 -30z" />
<glyph unicode=":" horiz-adv-x="278" d="M55 309v168h168v-168h-168zM55 0v168h168v-168h-168z" />
<glyph unicode=";" horiz-adv-x="278" d="M55 0v168h168v-168l-48 -147h-120l47 147h-47zM55 309v168h168v-168h-168z" />
<glyph unicode="&#x3c;" horiz-adv-x="600" d="M553 107v-115l-506 214v94l506 214v-115l-350 -146z" />
<glyph unicode="=" horiz-adv-x="600" d="M553 425v-120h-506v120h506zM553 201v-120h-506v120h506z" />
<glyph unicode="&#x3e;" horiz-adv-x="600" d="M47 -8v115l350 146l-350 146v115l506 -214v-94z" />
<glyph unicode="?" horiz-adv-x="500" d="M308 215h-161v39q0 30 11.5 56t24.5 40.5t35 34.5q24 21 35 32.5t23 34.5t12 49q0 53 -48 53q-28 0 -41 -23q-11 -20 -11 -41v-6h-174q0 64 32.5 106.5t83 60t115.5 17.5q44 0 83.5 -9.5t73.5 -29t54 -54.5t20 -82q0 -93 -92 -175q-74 -55 -76 -103zM311 163v-163h-168 v163h168z" />
<glyph unicode="@" horiz-adv-x="800" d="M409 401q-40 0 -67.5 -29t-27.5 -66q0 -33 19.5 -54t53.5 -21q44 0 71.5 28t27.5 68q0 33 -21 53.5t-56 20.5zM45 326q0 145 108.5 243.5t263.5 98.5q87 0 163.5 -33.5t126 -98t49.5 -145.5q0 -59 -21 -107t-51 -76.5t-66.5 -47.5t-64.5 -26t-47 -7q-21 0 -35.5 12 t-15.5 34h-2q-41 -45 -93 -45q-64 0 -112 48.5t-48 114.5q0 84 54.5 146t140.5 62q79 0 119 -53l9 44h92l-43 -217q-5 -20 -5 -32q0 -19 12 -19q35 0 62.5 36t27.5 103q0 107 -70 163t-185 56q-120 0 -192 -70.5t-72 -183.5q0 -118 77.5 -185t203.5 -67q113 0 184 50h95 q-107 -138 -287 -138q-158 0 -268 96.5t-110 243.5z" />
<glyph unicode="A" horiz-adv-x="778" d="M20 0v114h40l220 540h223l215 -540h40v-114h-311v114h74l-29 73h-235l-29 -73h74v-114h-282zM374 511l-75 -216h151l-74 216h-2z" />
<glyph unicode="B" horiz-adv-x="667" d="M20 0v114h64v426h-64v114h340h49q16 0 44 -1.5t42.5 -4.5t36.5 -8.5t33.5 -13.5t25.5 -20.5t20.5 -28.5t11.5 -37.5t5 -48.5q0 -65 -40.5 -106t-106.5 -48v-2q157 -12 157 -155q0 -47 -17 -81t-42 -53t-63.5 -29.5t-71.5 -13.5t-76 -3h-348zM272 540v-154h73q22 0 40.5 5 t36.5 24t18 51q0 74 -80 74h-88zM272 278v-164h75q103 0 103 78q0 42 -21.5 64t-61.5 22h-95z" />
<glyph unicode="C" horiz-adv-x="722" d="M680 654v-245h-167q0 63 -31 103q-34 42 -96 42q-45 0 -76.5 -22t-47.5 -59t-22.5 -74.5t-6.5 -80.5q0 -42 7.5 -78t23.5 -69t47.5 -52t75.5 -19q48 0 83 37q31 36 33 86h188q-4 -82 -48.5 -137t-109.5 -77.5t-147 -22.5q-173 0 -262.5 91.5t-89.5 263.5 q0 142 78.5 234.5t218.5 92.5t193 -76h2v62h154z" />
<glyph unicode="D" horiz-adv-x="778" d="M28 0v114h66v426h-66v114h230q13 0 53.5 0.5t64.5 0.5t56.5 -2t55.5 -5q121 -20 185.5 -106.5t64.5 -210.5q0 -189 -128 -275q-33 -21 -65 -33.5t-79 -17t-65.5 -5t-81.5 -0.5h-291zM282 540v-426h86q171 0 171 219q0 207 -164 207h-93z" />
<glyph unicode="E" horiz-adv-x="667" d="M20 0v114h64v426h-64v114h613v-204h-144v90h-217v-154h61v66h114v-242h-114v68h-61v-164h217v100h144v-214h-613z" />
<glyph unicode="F" horiz-adv-x="667" d="M20 0v114h64v426h-64v114h613v-216h-144v102h-217v-169h60v67h114v-247h-114v72h-60v-149h83v-114h-335z" />
<glyph unicode="G" horiz-adv-x="778" d="M700 654v-230h-167q-2 62 -40 96q-39 34 -104 34q-45 0 -77.5 -20.5t-48.5 -56t-23 -72t-7 -78.5t7 -78.5t23 -72t48.5 -56t77.5 -20.5q66 0 107 35.5t43 92.5h-72v114h291v-114h-53v-228h-154v64h-3q-57 -78 -184 -78q-153 0 -241.5 93.5t-88.5 246.5q0 159 77 250.5 t233 91.5q148 0 200 -79h2v65h154z" />
<glyph unicode="H" horiz-adv-x="778" d="M20 0v114h64v426h-64v114h327v-114h-75v-149h236v149h-75v114h325v-114h-62v-426h62v-114h-325v114h75v157h-236v-157h75v-114h-327z" />
<glyph unicode="I" horiz-adv-x="389" d="M26 0v114h74v426h-74v114h337v-114h-75v-426h75v-114h-337z" />
<glyph unicode="J" d="M539 654v-114h-52v-313v-10q0 -32 -1 -49t-6.5 -42.5t-17.5 -46.5q-54 -93 -205 -93q-124 0 -179 59q-51 53 -51 162q0 12 1 24h178v-26q0 -105 47 -105q46 0 46 82v358h-90v114h330z" />
<glyph unicode="K" horiz-adv-x="722" d="M20 0v114h64v426h-64v114h312v-114h-60v-176l162 176h-49v114h309v-114h-55l-181 -188l206 -238h43v-114h-315v114h55l-173 213h-2v-213h60v-114h-312z" />
<glyph unicode="L" horiz-adv-x="611" d="M20 0v114h64v426h-64v114h347v-114h-95v-426h157v136h154v-250h-563z" />
<glyph unicode="M" horiz-adv-x="944" d="M17 0v114h58v426h-58v114h339l115 -473h2l115 473h339v-114h-58v-426h58v-114h-293v114h62v426h-2l-150 -540h-173l-150 540h-2v-426h62v-114h-264z" />
<glyph unicode="N" horiz-adv-x="778" d="M20 0v114h64v426h-64v114h320l208 -491h2v377h-70v114h278v-114h-54v-540h-234l-230 517h-2v-403h72v-114h-290z" />
<glyph unicode="O" horiz-adv-x="778" d="M389 100q46 0 78 20.5t48 56t23 72t7 78.5t-7 78.5t-23 72t-48 56t-78 20.5t-78 -20.5t-48 -56t-23 -72t-7 -78.5t7 -78.5t23 -72t48 -56t78 -20.5zM389 -14q-165 0 -260 91t-95 250t95 250t260 91t260 -91t95 -250t-95 -250t-260 -91z" />
<glyph unicode="P" horiz-adv-x="667" d="M28 0v114h66v426h-66v114h374q108 0 172.5 -52t64.5 -158q0 -108 -64 -158.5t-173 -50.5h-120v-121h90v-114h-344zM282 540v-191h66q98 0 98 98q0 50 -21 71.5t-71 21.5h-72z" />
<glyph unicode="Q" horiz-adv-x="778" d="M763 114v-114h-145q-22 0 -134 -10q-48 -4 -95 -4q-165 0 -260 91t-95 250t95 250t260 91t260 -91t95 -250q0 -65 -33.5 -127t-96.5 -84v-2h149zM389 100q45 0 77.5 20.5t48.5 56t23 72t7 78.5t-7 78.5t-23 72t-48.5 56t-77.5 20.5t-77.5 -20.5t-48.5 -56t-23 -72 t-7 -78.5t7 -78.5t23 -72t48.5 -56t77.5 -20.5z" />
<glyph unicode="R" horiz-adv-x="722" d="M28 0v114h64v426h-64v114h358h14q106 0 159 -30q77 -43 77 -148q0 -73 -44.5 -113.5t-119.5 -45.5v-2q38 0 63.5 -11t40.5 -34t23 -43.5t18.5 -56.5t18.5 -56h58v-114h-217q-5 11 -18 56.5t-22 71.5q-30 93 -52 115q-14 15 -50 17h-55v-146h71v-114h-323zM280 540v-166 h67q101 0 101 91q0 20 -6.5 34.5t-15.5 22t-23.5 12t-27 5.5t-28.5 1h-67z" />
<glyph unicode="S" horiz-adv-x="611" d="M25 0v225h165v-7q0 -51 28 -84q31 -34 87 -34q38 0 65.5 17.5t27.5 52.5q0 27 -27.5 47t-68.5 30.5t-88.5 28t-88.5 37.5t-68.5 61t-27.5 97q0 99 67.5 148t170.5 49q47 0 92.5 -14.5t57.5 -49.5h2v50h154v-207h-153v12q0 44 -26 68q-31 27 -85 27q-36 0 -64 -15t-28 -48 q0 -25 27.5 -43t68.5 -28t88.5 -26.5t88.5 -37t68.5 -61.5t27.5 -98q0 -211 -243 -211q-129 0 -162 77h-2v-63h-154z" />
<glyph unicode="T" horiz-adv-x="722" d="M29 654h664v-238h-154v124h-84v-426h84v-114h-356v114h84v426h-84v-124h-154v238z" />
<glyph unicode="U" horiz-adv-x="722" d="M707 654v-114h-51v-274q0 -155 -64.5 -217.5t-221.5 -62.5q-165 0 -233.5 59.5t-68.5 220.5v274h-53v114h314v-114h-73v-274q0 -31 1.5 -51.5t8.5 -44t18.5 -37.5t33.5 -23.5t52 -9.5q73 0 95.5 41.5t22.5 124.5v274h-68v114h287z" />
<glyph unicode="V" horiz-adv-x="778" d="M761 654v-114h-48l-221 -540h-210l-217 540h-48v114h327v-114h-77l134 -392h2l136 392h-77v114h299z" />
<glyph unicode="W" horiz-adv-x="1000" d="M986 654v-114h-38l-139 -540h-218l-90 514h-2l-92 -514h-221l-134 540h-38v114h297v-114h-76l73 -392h2l105 506h203l100 -506h2l74 392h-74v114h266z" />
<glyph unicode="X" horiz-adv-x="778" d="M18 0v114h47l202 221l-191 205h-47v114h343v-103h-75l111 -139l109 139h-73v103h304v-114h-47l-191 -207l203 -219h47v-114h-348v103h81l-123 148l-120 -148h81v-103h-313z" />
<glyph unicode="Y" horiz-adv-x="722" d="M709 654v-114h-41l-214 -308v-118h91v-114h-368v114h89v114l-212 312h-41v114h333v-114h-76l106 -171l109 171h-73v114h297z" />
<glyph unicode="Z" horiz-adv-x="667" d="M30 0v139l366 401h-201v-109h-154v223h590v-140l-374 -400h226v114h154v-228h-607z" />
<glyph unicode="[" horiz-adv-x="333" d="M62 -120v842h232v-103h-83v-636h83v-103h-232z" />
<glyph unicode="\" horiz-adv-x="389" d="M-26 668h119l321 -682h-120z" />
<glyph unicode="]" horiz-adv-x="333" d="M271 722v-842h-232v103h83v636h-83v103h232z" />
<glyph unicode="^" horiz-adv-x="600" d="M189 289h-116l174 365h106l174 -365h-117l-110 248z" />
<glyph unicode="_" horiz-adv-x="500" d="M500 -125h-500v50h500v-50z" />
<glyph unicode="`" horiz-adv-x="278" d="M133 668l105 -148h-122l-156 123v25h173z" />
<glyph unicode="a" horiz-adv-x="611" d="M225 323h-176q4 89 80 133q61 35 159 35q247 0 247 -172v-211h55v-108h-214v72h-2q-53 -86 -169 -86q-74 0 -127 38.5t-53 110.5q0 71 54.5 113t128.5 47q52 4 78 4q13 0 39.5 -0.5t39.5 -0.5q0 51 -11 70q-17 30 -58 30q-35 0 -53.5 -20.5t-17.5 -54.5zM198 138 q0 -49 66 -49q47 0 76.5 36.5t29.5 84.5q-23 1 -42 1q-43 0 -65 -5q-65 -14 -65 -68z" />
<glyph unicode="b" horiz-adv-x="667" d="M23 0v108h57v460h-57v108h245v-263h2q24 40 69 59t97 19q104 0 154 -71t50 -180q0 -113 -52.5 -183.5t-160.5 -70.5q-51 0 -97 21.5t-75 60.5h-2v-68h-230zM361 100q86 0 86 141q0 136 -89 136q-50 0 -72.5 -40.5t-22.5 -95.5q0 -57 23 -99t75 -42z" />
<glyph unicode="c" d="M534 477v-185h-155v8q0 28 -18 51q-21 26 -56 26q-86 0 -86 -127q0 -150 86 -150q34 0 53 21q17 19 19 52h159q0 -14 -3 -26q-6 -46 -29 -78.5t-59 -50t-74 -25t-81 -7.5q-123 0 -193.5 69t-70.5 189q0 113 59.5 180t170.5 67q100 0 132 -70h2v56h144z" />
<glyph unicode="d" horiz-adv-x="667" d="M586 676v-568h52v-108h-228v89h-2q-36 -103 -174 -103q-110 0 -159 70t-49 186q0 110 52 179.5t159 69.5q122 0 159 -81h2v158h-61v108h249zM305 100q53 0 75 43.5t22 103.5q0 55 -22 92.5t-73 37.5q-88 0 -88 -146q0 -131 86 -131z" />
<glyph unicode="e" d="M531 193h-323q0 -104 72 -104q54 0 67 50h175q-2 -14 -4 -21q-44 -132 -238 -132q-120 0 -187.5 67t-67.5 187q0 115 67 183t183 68q182 0 232 -128q24 -68 24 -170zM208 291h140q0 45 -15.5 71t-57.5 26q-21 0 -35.5 -8t-21 -23t-8.5 -30t-2 -36z" />
<glyph unicode="f" horiz-adv-x="389" d="M31 0v108h61v261h-67v108h67v72q0 51 28.5 84t69 45t91.5 12q59 0 119 -11v-115q-15 1 -44 1q-76 0 -76 -59v-29h88v-108h-88v-261h78v-108h-327z" />
<glyph unicode="g" horiz-adv-x="667" d="M644 477v-108h-59v-366q0 -52 -23.5 -91.5t-63 -61t-85 -31.5t-95.5 -10q-35 0 -66.5 3t-69 13t-63.5 26.5t-44 46t-18 69.5h187q0 -29 25 -41q19 -9 51 -9q30 0 53.5 18t23.5 51v95h-2q-40 -73 -164 -73q-105 0 -154.5 66.5t-49.5 174.5q0 106 54.5 174t157.5 68 q124 0 173 -96h2v82h230zM305 377q-85 0 -85 -136q0 -119 85 -119q50 0 74 35.5t24 86.5q0 57 -23 95t-75 38z" />
<glyph unicode="h" horiz-adv-x="667" d="M24 0v108h56v460h-56v108h244v-282h2q6 35 35 58t62.5 31t69.5 8q72 0 114 -39t42 -109v-235h50v-108h-284v108h46v188q0 32 -16.5 51.5t-47.5 19.5q-34 0 -53.5 -20.5t-19.5 -53.5v-185h54v-108h-298z" />
<glyph unicode="i" horiz-adv-x="333" d="M24 0v108h56v261h-56v108h244v-369h50v-108h-294zM80 528v148h188v-148h-188z" />
<glyph unicode="j" horiz-adv-x="333" d="M24 369v108h244v-495q0 -94 -30 -133.5t-121 -39.5q-52 0 -113 8v112h30q16 0 26.5 7t14 23t4.5 27.5t1 34.5v348h-56zM80 528v148h188v-148h-188z" />
<glyph unicode="k" horiz-adv-x="667" d="M24 0v108h56v460h-56v108h244v-397l136 91v4h-80v103h308v-105l-157 -73l122 -191h46v-108h-287v103h54l-65 102l-77 -59v-43h39v-103h-283z" />
<glyph unicode="l" horiz-adv-x="333" d="M24 0v108h56v460h-56v108h244v-568h50v-108h-294z" />
<glyph unicode="m" horiz-adv-x="1000" d="M35 0v108h56v261h-56v108h234v-86h2q47 100 170 100q108 0 154 -89q46 89 164 89q74 0 120 -38.5t46 -110.5v-234h55v-108h-286v108h43v162q0 97 -61 97q-74 0 -74 -109v-150h43v-108h-273v108h42v162q0 25 -1.5 38.5t-7 29t-18.5 22.5t-34 7q-74 0 -74 -109v-150h43 v-108h-287z" />
<glyph unicode="n" horiz-adv-x="667" d="M24 0v108h56v261h-56v108h226v-94h2q19 56 68.5 82t114.5 26q73 0 115.5 -39t42.5 -109v-235h50v-108h-284v108h46v188q0 32 -16.5 51.5t-47.5 19.5q-34 0 -53.5 -20.5t-19.5 -53.5v-185h42v-108h-286z" />
<glyph unicode="o" horiz-adv-x="611" d="M219 239q0 -138 87 -138t87 138t-87 138t-87 -138zM26 238q0 118 80 185.5t200 67.5t200 -67.5t80 -185.5q0 -117 -80 -184.5t-200 -67.5t-200 67.5t-80 184.5z" />
<glyph unicode="p" horiz-adv-x="667" d="M26 -177v108h54v438h-54v108h228v-84h2q37 56 75.5 77t104.5 21q104 0 154 -71t50 -180q0 -113 -52.5 -183.5t-160.5 -70.5q-112 0 -157 82h-2v-137h67v-108h-309zM361 100q86 0 86 141q0 136 -89 136q-50 0 -72.5 -40.5t-22.5 -95.5q0 -57 23 -99t75 -42z" />
<glyph unicode="q" horiz-adv-x="667" d="M329 -177v108h69v137h-2q-19 -42 -64 -62t-98 -20q-110 0 -159 70t-49 186q0 110 52 179.5t159 69.5q60 0 109.5 -25.5t64.5 -78.5h2v90h227v-108h-54v-438h54v-108h-311zM305 100q53 0 75 43.5t22 103.5q0 55 -22 92.5t-73 37.5q-88 0 -88 -146q0 -131 86 -131z" />
<glyph unicode="r" horiz-adv-x="444" d="M25 0v108h55v261h-55v108h229v-115h2q2 9 8 25q14 44 48.5 74t78.5 30q30 0 51 -7v-169q-21 7 -59 7q-54 0 -84.5 -31t-30.5 -85v-98h69v-108h-312z" />
<glyph unicode="s" horiz-adv-x="500" d="M35 0v168h137q-1 -34 19.5 -59t54.5 -25q20 0 36.5 11.5t16.5 31.5q0 23 -20 36.5t-50 18t-65.5 14t-65.5 22t-50 43t-20 76.5q0 69 45 111.5t114 42.5q111 0 142 -65h2v51h125v-163h-139q0 33 -17.5 56t-49.5 23q-49 0 -49 -39q0 -20 20 -32t50 -17t65.5 -15t65.5 -23.5 t50 -45t20 -78.5q0 -69 -47 -113t-116 -44q-115 0 -142 66h-2v-52h-130z" />
<glyph unicode="t" horiz-adv-x="444" d="M18 369v108h62v89l188 65v-154h119v-108h-119v-232q0 -37 29 -37t29 59v18h99q1 -11 1 -21.5t-1 -22.5q-6 -80 -47.5 -113.5t-119.5 -33.5q-100 0 -139 43.5t-39 142.5v197h-62z" />
<glyph unicode="u" horiz-adv-x="667" d="M579 477v-369h56v-108h-226v94h-2q-19 -56 -68.5 -82t-114.5 -26q-73 0 -115.5 39t-42.5 109v235h-48v108h236v-296q0 -32 16.5 -51.5t47.5 -19.5q34 0 53.5 20.5t19.5 53.5v185h-42v108h230z" />
<glyph unicode="v" horiz-adv-x="611" d="M15 369v108h277v-108h-49l74 -228h2l78 228h-50v108h249v-109h-29l-148 -368h-226l-148 369h-30z" />
<glyph unicode="w" horiz-adv-x="944" d="M19 369v108h272v-108h-54l56 -244h2l83 352h212l81 -352h2l56 244h-51v108h247v-108h-36l-117 -369h-229l-70 329h-2l-74 -329h-229l-113 369h-36z" />
<glyph unicode="x" horiz-adv-x="611" d="M27 369v108h269v-98h-42l68 -79l68 79h-43v98h236v-108h-35l-115 -122l127 -139h32v-108h-274v98h53l-81 92l-82 -92h55v-98h-244v108h30l128 139l-113 122h-37z" />
<glyph unicode="y" horiz-adv-x="611" d="M14 369v108h280v-108h-50l79 -223h2l72 223h-49v108h249v-108h-33l-194 -437q-32 -72 -71 -97.5t-118 -25.5q-35 0 -80 7v119q23 -6 50 -6q75 0 75 37q0 18 -10 41l-164 362h-38z" />
<glyph unicode="z" d="M43 0v127l261 252h-116v-54h-138v152h460v-127l-263 -252h128v61h138v-159h-470z" />
<glyph unicode="{" horiz-adv-x="333" d="M333 -22v-98h-110q-45 0 -91.5 36.5t-46.5 101.5v168q0 27 -17.5 43t-34 19.5t-33.5 3.5v98q17 0 33.5 4t34 22.5t17.5 49.5v158q0 65 46.5 101.5t91.5 36.5h110v-98h-41q-58 0 -58 -67v-149q0 -27 -9.5 -47t-20.5 -30t-31 -17t-29 -8.5t-26 -3.5v-2q16 -1 33 -5.5 t37 -14t33 -29.5t13 -47v-159q0 -67 58 -67h41z" />
<glyph unicode="|" horiz-adv-x="222" d="M51 750h120v-1000h-120v1000z" />
<glyph unicode="}" horiz-adv-x="333" d="M0 -120v98h47q52 0 52 67v159q0 27 13 47t33 29.5t37 14t33 5.5v2q-17 2 -26 3.5t-29 8.5t-31 17t-20.5 30t-9.5 47v149q0 67 -52 67h-47v98h110q26 0 56.5 -13.5t56 -47t25.5 -77.5v-158q0 -31 17.5 -49.5t34 -22.5t33.5 -4v-98q-17 0 -33.5 -3.5t-34 -19.5t-17.5 -43 v-168q0 -44 -25.5 -77.5t-56 -47t-56.5 -13.5h-110z" />
<glyph unicode="~" horiz-adv-x="600" d="M105 162l-36 94q44 84 125 84q44 0 111 -30l21 -10q15 -6 24 -10l20 -8q11 -4 20 -6t17 -2q19 0 36.5 12t27 24.5t24.5 35.5l36 -96q-20 -27 -33 -42t-38 -29.5t-54 -14.5q-42 0 -102 33q-62 35 -115 35q-50 0 -84 -70z" />
<glyph unicode="&#xa1;" horiz-adv-x="389" d="M111 314v163h168v-163h-168zM126 262h138l33 -439h-204z" />
<glyph unicode="&#xa2;" d="M378 -7v-84h-120v81q-103 12 -161 78q-58 69 -58 176q0 106 52.5 172t151.5 73v91h120v-113q26 -20 38 -46h2v56h144v-184h-155v8q0 27 -18 50q-21 26 -56 26q-86 0 -86 -127q0 -150 86 -150q34 0 53 21q17 19 19 52h159q0 -14 -3 -26q-16 -128 -168 -154z" />
<glyph unicode="&#xa3;" d="M79 296h-70v108h70v90q0 98 63 136t182 38q109 0 169 -43.5t60 -147.5h-168q0 40 -11 58q-13 25 -49 25q-53 0 -58 -60v-96h94v-108h-94v-182h118v100h159v-214h-529v114h64v182z" />
<glyph unicode="&#xa4;" d="M17 526l65 61l56 -56q64 44 141 44q78 0 139 -43l60 55l61 -61l-59 -54q47 -64 47 -145q0 -77 -44 -140l56 -57l-61 -61l-56 56q-62 -46 -143 -46t-144 47l-57 -57l-61 61l57 57q-43 62 -43 140t44 141zM156 327q0 -59 36.5 -93.5t86.5 -34.5t86.5 34.5t36.5 93.5 t-36.5 93.5t-86.5 34.5t-86.5 -34.5t-36.5 -93.5z" />
<glyph unicode="&#xa5;" d="M103 0v114h94v64h-136v80h121l-28 62h-93v80h57l-72 140h-46v114h272v-114h-56l86 -190l69 190h-47v114h232v-114h-57l-58 -140h74v-80h-104l-23 -62h127v-80h-140v-64h96v-114h-368z" />
<glyph unicode="&#xa6;" horiz-adv-x="222" d="M51 675h120v-350h-120v350zM51 175h120v-350h-120v350z" />
<glyph unicode="&#xa7;" d="M506 500h-166v5q0 20 -13 36q-14 19 -46 19q-50 0 -50 -36q0 -9 3.5 -16.5t12.5 -14t17 -11.5t23.5 -11.5t26 -10.5t30 -10.5t29.5 -10.5q66 -24 104 -55.5t38 -84.5q0 -41 -22.5 -74.5t-61.5 -39.5v-2q36 -14 57.5 -46.5t21.5 -71.5q0 -87 -67 -131t-159 -44 q-224 0 -231 168h169q0 -8 1 -12q2 -23 20 -35.5t42 -12.5q23 0 36 10q16 10 16 28q0 9 -4 16.5t-13 14.5t-17 12t-24 11l-27 11q-10 4 -30.5 11t-30.5 11q-69 24 -109 56.5t-40 89.5q0 38 28 71t66 45v2q-35 7 -56.5 40t-21.5 71q0 60 34.5 100t82 55t106.5 15 q61 0 108 -14t81.5 -53t35.5 -101zM228 360q-37 -21 -37 -63q0 -19 16.5 -34.5t34.5 -23t46.5 -17.5t36.5 -14q41 36 41 58q0 29 -23 45.5t-63 29t-52 19.5z" />
<glyph unicode="&#xa8;" horiz-adv-x="278" d="M-46 520v148h149v-148h-149zM175 520v148h149v-148h-149z" />
<glyph unicode="&#xa9;" horiz-adv-x="800" d="M400 668q67 0 128 -22.5t109 -64.5t76 -108t28 -147q0 -107 -49 -186t-125.5 -116.5t-166.5 -37.5q-141 0 -241 90.5t-100 249.5q0 107 49 186.5t125 117.5t167 38zM400 74q99 0 168 70t68 182q1 113 -68 183.5t-168 70.5q-101 0 -168.5 -70t-67.5 -184 q0 -113 67.5 -182.5t168.5 -69.5zM487 278h84q0 -6 -2 -16q-11 -58 -54 -95q-46 -38 -107 -38q-76 0 -126.5 59t-50.5 140q0 84 49 139.5t128 55.5q59 0 103 -33q44 -34 54 -90q2 -10 2 -16h-80q-5 26 -27.5 42.5t-51.5 16.5q-36 0 -57 -32t-21 -80q0 -52 22 -87t56 -35 t55.5 19t23.5 50z" />
<glyph unicode="&#xaa;" horiz-adv-x="397" d="M371 450v-62h-134v42h-2q-31 -48 -99 -48h-7q-40 0 -70 20q-33 23 -33 63q0 28 18.5 47t49 27.5t57 12t54.5 3.5h32q0 28 -9 42.5t-36 14.5q-22 0 -33.5 -11.5t-10.5 -29.5h-109q3 52 50 77q37 20 98 20q155 0 155 -99v-119h29zM131 467q0 -29 41 -29q29 0 47 20t18 52 h-28q-78 0 -78 -43z" />
<glyph unicode="&#xab;" d="M83 230l84 200h120l-84 -200l84 -200h-120zM269 230l84 200h120l-84 -200l84 -200h-120z" />
<glyph unicode="&#xac;" horiz-adv-x="600" d="M433 108v197h-386v120h506v-317h-120z" />
<glyph unicode="&#xad;" horiz-adv-x="333" d="M40 199v140h253v-140h-253z" />
<glyph unicode="&#xae;" horiz-adv-x="800" d="M400 668q67 0 128 -22.5t109 -64.5t76 -108t28 -147q0 -107 -49 -186t-125.5 -116.5t-166.5 -37.5q-141 0 -241 90.5t-100 249.5q0 107 49 186.5t125 117.5t167 38zM400 74q99 0 168 70t68 182q1 113 -68 183.5t-168 70.5q-101 0 -168.5 -70t-67.5 -184 q0 -113 67.5 -182.5t168.5 -69.5zM266 142v374h134q74 0 112 -26.5t38 -89.5q0 -93 -101 -98l91 -160h-82l-81 155h-30v-155h-81zM347 448v-83h68q25 0 36.5 9.5t11.5 34.5q0 39 -66 39h-50z" />
<glyph unicode="&#xaf;" horiz-adv-x="278" d="M-32 574v80h342v-80h-342z" />
<glyph unicode="&#xb0;" horiz-adv-x="400" d="M50 518q0 62 44 106t106 44t106 -44t44 -106t-44 -106t-106 -44t-106 44t-44 106zM124 518q0 -31 23.5 -53t52.5 -22t52.5 22t23.5 53t-23.5 53t-52.5 22t-52.5 -22t-23.5 -53z" />
<glyph unicode="&#xb1;" horiz-adv-x="600" d="M240 388v118h120v-118h193v-120h-193v-118h-120v118h-193v120h193zM47 0v120h506v-120h-506z" />
<glyph unicode="&#xb2;" horiz-adv-x="361" d="M13 265v88l138 114q63 52 63 91q0 14 -10 24.5t-26 10.5q-41 0 -41 -59h-130q0 68 50 103q44 31 122 31q69 0 117 -28t48 -88t-58 -104l-141 -106v-2h103v40h105v-115h-340z" />
<glyph unicode="&#xb3;" horiz-adv-x="361" d="M6 384h130q0 -23 11 -37q11 -13 33 -13q44 0 44 50q0 41 -70 41h-13v75h19q33 0 45.5 11t12.5 41q0 17 -10.5 29t-27.5 12q-39 0 -39 -50h-130q0 61 55 96q46 29 114 29q71 0 119.5 -28.5t48.5 -87.5q0 -73 -98 -87v-2q104 -8 104 -88q-1 -30 -12 -51.5t-27 -34 t-41 -19.5t-48 -9t-53 -2q-76 0 -121.5 30t-45.5 95z" />
<glyph unicode="&#xb4;" horiz-adv-x="278" d="M148 668h170v-24l-159 -124h-119z" />
<glyph unicode="&#xb5;" horiz-adv-x="667" d="M579 477v-369h56v-108h-226v94h-2q-13 -52 -55.5 -76t-96.5 -24v-171h-189v546h-48v108h236v-296q0 -32 16.5 -51.5t47.5 -19.5q34 0 53.5 20.5t19.5 53.5v185h-42v108h230z" />
<glyph unicode="&#xb6;" horiz-adv-x="620" d="M242 -118v423q-108 0 -165.5 45t-57.5 126q0 100 64.5 139t181.5 39h314v-772h-120v684h-97v-684h-120z" />
<glyph unicode="&#xb7;" horiz-adv-x="278" d="M136 334q39 0 63 -23t24 -61q0 -37 -24 -60.5t-63 -23.5q-34 0 -57.5 24t-23.5 60q0 37 23.5 60.5t57.5 23.5z" />
<glyph unicode="&#xb8;" horiz-adv-x="278" d="M57 -88l58 94h52l-42 -72q21 6 44 6q35 0 63 -19.5t28 -53.5q0 -40 -38 -62.5t-80 -22.5q-75 0 -133 23l15 46q49 -27 90 -27q22 0 38 8.5t16 26.5q0 20 -13 29.5t-30 9.5q-16 0 -46 -6z" />
<glyph unicode="&#xb9;" horiz-adv-x="361" d="M85 265v75h60v212l-108 -69v100l122 79h116v-322h48v-75h-238z" />
<glyph unicode="&#xba;" horiz-adv-x="397" d="M197 450q54 0 54 77q0 73 -53 73q-52 0 -52 -73q0 -77 51 -77zM197 668q76 0 125 -37t49 -105q0 -69 -48.5 -106.5t-125.5 -37.5q-76 0 -123.5 38.5t-47.5 108.5q0 64 49.5 101.5t121.5 37.5z" />
<glyph unicode="&#xbb;" d="M389 430l84 -200l-84 -200h-120l84 200l-84 200h120zM203 430l84 -200l-84 -200h-120l84 200l-84 200h120z" />
<glyph unicode="&#xbc;" horiz-adv-x="834" d="M480 183l162 211h152v-220h40v-62h-40v-46h40v-68h-216v68h56v46h-194v71zM672 302l-102 -128h104v128h-2zM239 -22l248 698h96l-248 -698h-96zM48 265v75h60v212l-108 -69v100l122 79h116v-322h48v-75h-238z" />
<glyph unicode="&#xbd;" horiz-adv-x="834" d="M324 -22h-96l248 698h96zM48 265v75h60v212l-108 -69v100l122 79h116v-322h48v-75h-238zM494 0v88l138 114q63 52 63 91q0 14 -10 24.5t-26 10.5q-41 0 -41 -63h-130q0 72 50 107q44 31 122 31q69 0 117 -28t48 -88q0 -61 -58 -104l-141 -106v-2h103v40h105v-115h-340z " />
<glyph unicode="&#xbe;" horiz-adv-x="834" d="M480 183l162 211h152v-220h40v-62h-40v-46h40v-68h-216v68h56v46h-194v71zM672 302l-102 -128h104v128h-2zM259 -22l248 698h96l-248 -698h-96zM0 384h130q0 -23 11 -37q11 -13 33 -13q44 0 44 50q0 41 -70 41h-13v75h19q33 0 45.5 11t12.5 41q0 17 -10.5 29t-27.5 12 q-39 0 -39 -50h-130q0 61 55 96q46 29 114 29q71 0 119.5 -28.5t48.5 -87.5q0 -73 -98 -87v-2q104 -8 104 -88q-1 -30 -12 -51.5t-27 -34t-41 -19.5t-48 -9t-53 -2q-76 0 -121.5 30t-45.5 95z" />
<glyph unicode="&#xbf;" horiz-adv-x="500" d="M192 262h161v-39q0 -30 -11.5 -56t-24.5 -40.5t-35 -34.5q-24 -21 -35 -32.5t-23 -34.5t-12 -49q0 -53 48 -53q28 0 41 23q11 20 11 41v6h174q0 -64 -32.5 -106.5t-83 -60t-115.5 -17.5q-44 0 -83.5 9.5t-73.5 29t-54 54.5t-20 82q0 93 92 175q74 55 76 103zM189 314v163 h168v-163h-168z" />
<glyph unicode="&#xc0;" horiz-adv-x="778" d="M20 0v114h40l220 540h223l215 -540h40v-114h-311v114h74l-29 73h-235l-29 -73h74v-114h-282zM374 511l-75 -216h151l-74 216h-2zM383 845l105 -148h-122l-156 123v25h173z" />
<glyph unicode="&#xc1;" horiz-adv-x="778" d="M20 0v114h40l220 540h223l215 -540h40v-114h-311v114h74l-29 73h-235l-29 -73h74v-114h-282zM374 511l-75 -216h151l-74 216h-2zM398 845h170v-24l-159 -124h-119z" />
<glyph unicode="&#xc2;" horiz-adv-x="778" d="M20 0v114h40l220 540h223l215 -540h40v-114h-311v114h74l-29 73h-235l-29 -73h74v-114h-282zM374 511l-75 -216h151l-74 216h-2zM203 697l109 148h153l110 -148h-108l-78 87l-79 -87h-107z" />
<glyph unicode="&#xc3;" horiz-adv-x="778" d="M20 0v114h40l220 540h223l215 -540h40v-114h-311v114h74l-29 73h-235l-29 -73h74v-114h-282zM374 511l-75 -216h151l-74 216h-2zM513 845h72q0 -47 -29 -97.5t-72 -50.5q-40 0 -101 26q-55 21 -70 21q-18 0 -32 -13.5t-16 -33.5h-72q0 57 28.5 102.5t81.5 45.5 q40 0 90 -20q48 -20 78 -20q15 0 27 12t15 28z" />
<glyph unicode="&#xc4;" horiz-adv-x="778" d="M20 0v114h40l220 540h223l215 -540h40v-114h-311v114h74l-29 73h-235l-29 -73h74v-114h-282zM374 511l-75 -216h151l-74 216h-2zM204 697v148h149v-148h-149zM425 697v148h149v-148h-149z" />
<glyph unicode="&#xc5;" horiz-adv-x="778" d="M20 0v114h40l220 540h223l215 -540h40v-114h-311v114h74l-29 73h-235l-29 -73h74v-114h-282zM374 511l-75 -216h151l-74 216h-2zM389 695q-45 0 -78 33t-33 78t33 78t78 33t78 -33t33 -78t-33 -78t-78 -33zM389 855q-21 0 -35 -14t-14 -35q0 -20 14 -34.5t35 -14.5 t35 14.5t14 34.5q0 21 -14 35t-35 14z" />
<glyph unicode="&#xc6;" horiz-adv-x="1000" d="M15 0v114h41l245 540h665v-204h-144v90h-255l30 -154h72v68h114v-243h-114v67h-51l32 -164h172v100h144v-214h-560v114h74l-14 73h-222l-31 -73h66v-114h-264zM290 295h155l-48 245h-2z" />
<glyph unicode="&#xc7;" horiz-adv-x="722" d="M680 654v-245h-167q0 63 -31 103q-34 42 -96 42q-45 0 -76.5 -22t-47.5 -59t-22.5 -74.5t-6.5 -80.5q0 -42 7.5 -78t23.5 -69t47.5 -52t75.5 -19q48 0 83 37q31 36 33 86h188q-4 -82 -48.5 -137t-109.5 -77.5t-147 -22.5h-8l-31 -52q21 6 44 6q35 0 63 -19.5t28 -53.5 q0 -40 -38 -62.5t-80 -22.5q-75 0 -133 23l15 46q49 -27 90 -27q22 0 38 8.5t16 26.5q0 20 -13 29.5t-30 9.5q-16 0 -46 -6l-22 20l48 77q-145 16 -219 106t-74 246q0 142 78.5 234.5t218.5 92.5t193 -76h2v62h154z" />
<glyph unicode="&#xc8;" horiz-adv-x="667" d="M20 0v114h64v426h-64v114h613v-204h-144v90h-217v-154h61v66h114v-242h-114v68h-61v-164h217v100h144v-214h-613zM328 845l105 -148h-122l-156 123v25h173z" />
<glyph unicode="&#xc9;" horiz-adv-x="667" d="M20 0v114h64v426h-64v114h613v-204h-144v90h-217v-154h61v66h114v-242h-114v68h-61v-164h217v100h144v-214h-613zM343 845h170v-24l-159 -124h-119z" />
<glyph unicode="&#xca;" horiz-adv-x="667" d="M20 0v114h64v426h-64v114h613v-204h-144v90h-217v-154h61v66h114v-242h-114v68h-61v-164h217v100h144v-214h-613zM148 697l109 148h153l110 -148h-108l-78 87l-79 -87h-107z" />
<glyph unicode="&#xcb;" horiz-adv-x="667" d="M20 0v114h64v426h-64v114h613v-204h-144v90h-217v-154h61v66h114v-242h-114v68h-61v-164h217v100h144v-214h-613zM149 697v148h149v-148h-149zM370 697v148h149v-148h-149z" />
<glyph unicode="&#xcc;" horiz-adv-x="389" d="M26 0v114h74v426h-74v114h337v-114h-75v-426h75v-114h-337zM189 845l105 -148h-122l-156 123v25h173z" />
<glyph unicode="&#xcd;" horiz-adv-x="389" d="M26 0v114h74v426h-74v114h337v-114h-75v-426h75v-114h-337zM204 845h170v-24l-159 -124h-119z" />
<glyph unicode="&#xce;" horiz-adv-x="389" d="M26 0v114h74v426h-74v114h337v-114h-75v-426h75v-114h-337zM9 697l109 148h153l110 -148h-108l-78 87l-79 -87h-107z" />
<glyph unicode="&#xcf;" horiz-adv-x="389" d="M26 0v114h74v426h-74v114h337v-114h-75v-426h75v-114h-337zM10 697v148h149v-148h-149zM231 697v148h149v-148h-149z" />
<glyph unicode="&#xd0;" horiz-adv-x="778" d="M420 391v-120h-138v-157h86q171 0 171 219q0 207 -164 207h-93v-149h138zM28 0v114h66v157h-66v120h66v149h-66v114h346q76 0 114 -6q121 -20 185.5 -106.5t64.5 -210.5q0 -189 -128 -275q-33 -21 -65 -33.5t-79 -17t-65.5 -5t-81.5 -0.5h-291z" />
<glyph unicode="&#xd1;" horiz-adv-x="778" d="M20 0v114h64v426h-64v114h320l208 -491h2v377h-70v114h278v-114h-54v-540h-234l-230 517h-2v-403h72v-114h-290zM513 845h72q0 -47 -29 -97.5t-72 -50.5q-40 0 -101 26q-55 21 -70 21q-18 0 -32 -13.5t-16 -33.5h-72q0 57 28.5 102.5t81.5 45.5q40 0 90 -20 q48 -20 78 -20q15 0 27 12t15 28z" />
<glyph unicode="&#xd2;" horiz-adv-x="778" d="M389 100q46 0 78 20.5t48 56t23 72t7 78.5t-7 78.5t-23 72t-48 56t-78 20.5t-78 -20.5t-48 -56t-23 -72t-7 -78.5t7 -78.5t23 -72t48 -56t78 -20.5zM389 -14q-165 0 -260 91t-95 250t95 250t260 91t260 -91t95 -250t-95 -250t-260 -91zM383 845l105 -148h-122l-156 123 v25h173z" />
<glyph unicode="&#xd3;" horiz-adv-x="778" d="M389 100q46 0 78 20.5t48 56t23 72t7 78.5t-7 78.5t-23 72t-48 56t-78 20.5t-78 -20.5t-48 -56t-23 -72t-7 -78.5t7 -78.5t23 -72t48 -56t78 -20.5zM389 -14q-165 0 -260 91t-95 250t95 250t260 91t260 -91t95 -250t-95 -250t-260 -91zM398 845h170v-24l-159 -124h-119z " />
<glyph unicode="&#xd4;" horiz-adv-x="778" d="M389 100q46 0 78 20.5t48 56t23 72t7 78.5t-7 78.5t-23 72t-48 56t-78 20.5t-78 -20.5t-48 -56t-23 -72t-7 -78.5t7 -78.5t23 -72t48 -56t78 -20.5zM389 -14q-165 0 -260 91t-95 250t95 250t260 91t260 -91t95 -250t-95 -250t-260 -91zM203 697l109 148h153l110 -148 h-108l-78 87l-79 -87h-107z" />
<glyph unicode="&#xd5;" horiz-adv-x="778" d="M389 100q46 0 78 20.5t48 56t23 72t7 78.5t-7 78.5t-23 72t-48 56t-78 20.5t-78 -20.5t-48 -56t-23 -72t-7 -78.5t7 -78.5t23 -72t48 -56t78 -20.5zM389 -14q-165 0 -260 91t-95 250t95 250t260 91t260 -91t95 -250t-95 -250t-260 -91zM513 845h72q0 -47 -29 -97.5 t-72 -50.5q-40 0 -101 26q-55 21 -70 21q-18 0 -32 -13.5t-16 -33.5h-72q0 57 28.5 102.5t81.5 45.5q40 0 90 -20q48 -20 78 -20q15 0 27 12t15 28z" />
<glyph unicode="&#xd6;" horiz-adv-x="778" d="M389 100q46 0 78 20.5t48 56t23 72t7 78.5t-7 78.5t-23 72t-48 56t-78 20.5t-78 -20.5t-48 -56t-23 -72t-7 -78.5t7 -78.5t23 -72t48 -56t78 -20.5zM389 -14q-165 0 -260 91t-95 250t95 250t260 91t260 -91t95 -250t-95 -250t-260 -91zM204 697v148h149v-148h-149z M425 697v148h149v-148h-149z" />
<glyph unicode="&#xd7;" horiz-adv-x="600" d="M218 253l-154 154l82 82l154 -154l154 154l82 -82l-155 -154l155 -154l-82 -82l-154 155l-154 -155l-82 82z" />
<glyph unicode="&#xd8;" horiz-adv-x="778" d="M528 441l-254 -282q39 -59 115 -59q45 0 77.5 20.5t48.5 56t23 72t7 78.5q0 64 -17 114zM247 221l251 281q-37 52 -109 52q-45 0 -77.5 -20.5t-48.5 -56t-23 -72t-7 -78.5q0 -58 14 -106zM98 -37l-46 40l72 80q-90 88 -90 244q0 159 95 250t260 91q124 0 210 -53l70 79 l50 -41l-70 -77q95 -89 95 -249q0 -159 -95 -250t-260 -91q-129 0 -218 59z" />
<glyph unicode="&#xd9;" horiz-adv-x="722" d="M707 654v-114h-51v-274q0 -155 -64.5 -217.5t-221.5 -62.5q-165 0 -233.5 59.5t-68.5 220.5v274h-53v114h314v-114h-73v-274q0 -31 1.5 -51.5t8.5 -44t18.5 -37.5t33.5 -23.5t52 -9.5q73 0 95.5 41.5t22.5 124.5v274h-68v114h287zM355 845l105 -148h-122l-156 123v25h173 z" />
<glyph unicode="&#xda;" horiz-adv-x="722" d="M707 654v-114h-51v-274q0 -155 -64.5 -217.5t-221.5 -62.5q-165 0 -233.5 59.5t-68.5 220.5v274h-53v114h314v-114h-73v-274q0 -31 1.5 -51.5t8.5 -44t18.5 -37.5t33.5 -23.5t52 -9.5q73 0 95.5 41.5t22.5 124.5v274h-68v114h287zM370 845h170v-24l-159 -124h-119z" />
<glyph unicode="&#xdb;" horiz-adv-x="722" d="M707 654v-114h-51v-274q0 -155 -64.5 -217.5t-221.5 -62.5q-165 0 -233.5 59.5t-68.5 220.5v274h-53v114h314v-114h-73v-274q0 -31 1.5 -51.5t8.5 -44t18.5 -37.5t33.5 -23.5t52 -9.5q73 0 95.5 41.5t22.5 124.5v274h-68v114h287zM175 697l109 148h153l110 -148h-108 l-78 87l-79 -87h-107z" />
<glyph unicode="&#xdc;" horiz-adv-x="722" d="M707 654v-114h-51v-274q0 -155 -64.5 -217.5t-221.5 -62.5q-165 0 -233.5 59.5t-68.5 220.5v274h-53v114h314v-114h-73v-274q0 -31 1.5 -51.5t8.5 -44t18.5 -37.5t33.5 -23.5t52 -9.5q73 0 95.5 41.5t22.5 124.5v274h-68v114h287zM176 697v148h149v-148h-149zM397 697 v148h149v-148h-149z" />
<glyph unicode="&#xdd;" horiz-adv-x="722" d="M709 654v-114h-41l-214 -308v-118h91v-114h-368v114h89v114l-212 312h-41v114h333v-114h-76l106 -171l109 171h-73v114h297zM370 845h170v-24l-159 -124h-119z" />
<glyph unicode="&#xde;" horiz-adv-x="667" d="M94 114v426h-66v114h345v-114h-91v-34h120q105 0 171 -47.5t66 -132.5q0 -88 -65 -133.5t-172 -45.5h-120v-33h91v-114h-345v114h66zM282 392v-131h66q46 0 72 20t26 48q0 63 -92 63h-72z" />
<glyph unicode="&#xdf;" horiz-adv-x="667" d="M76 108v347q-1 128 67 181.5t209 53.5q44 0 84.5 -8t78.5 -26t61 -52.5t23 -81.5q0 -63 -36.5 -102.5t-99.5 -49.5v-2q82 -8 125 -47t44 -121q0 -42 -8.5 -74t-20 -53t-35 -35.5t-42 -22t-53.5 -11t-55.5 -4t-62.5 -0.5v108q42 2 65.5 29.5t23.5 69.5q0 57 -29 79 q-28 22 -82 22h-5v120q83 0 83 92q0 28 -19 45t-52 17q-47 0 -61.5 -24.5t-14.5 -79.5v-370h43v-108h-287v108h56z" />
<glyph unicode="&#xe0;" horiz-adv-x="611" d="M225 323h-176q4 89 80 133q61 35 159 35q247 0 247 -172v-211h55v-108h-214v72h-2q-53 -86 -169 -86q-74 0 -127 38.5t-53 110.5q0 71 54.5 113t128.5 47q52 4 78 4q13 0 39.5 -0.5t39.5 -0.5q0 51 -11 70q-17 30 -58 30q-35 0 -53.5 -20.5t-17.5 -54.5zM198 138 q0 -49 66 -49q47 0 76.5 36.5t29.5 84.5q-23 1 -42 1q-43 0 -65 -5q-65 -14 -65 -68zM300 668l105 -148h-122l-156 123v25h173z" />
<glyph unicode="&#xe1;" horiz-adv-x="611" d="M225 323h-176q4 89 80 133q61 35 159 35q247 0 247 -172v-211h55v-108h-214v72h-2q-53 -86 -169 -86q-74 0 -127 38.5t-53 110.5q0 71 54.5 113t128.5 47q52 4 78 4q13 0 39.5 -0.5t39.5 -0.5q0 51 -11 70q-17 30 -58 30q-35 0 -53.5 -20.5t-17.5 -54.5zM198 138 q0 -49 66 -49q47 0 76.5 36.5t29.5 84.5q-23 1 -42 1q-43 0 -65 -5q-65 -14 -65 -68zM315 668h170v-24l-159 -124h-119z" />
<glyph unicode="&#xe2;" horiz-adv-x="611" d="M225 323h-176q4 89 80 133q61 35 159 35q247 0 247 -172v-211h55v-108h-214v72h-2q-53 -86 -169 -86q-74 0 -127 38.5t-53 110.5q0 71 54.5 113t128.5 47q52 4 78 4q13 0 39.5 -0.5t39.5 -0.5q0 51 -11 70q-17 30 -58 30q-35 0 -53.5 -20.5t-17.5 -54.5zM198 138 q0 -49 66 -49q47 0 76.5 36.5t29.5 84.5q-23 1 -42 1q-43 0 -65 -5q-65 -14 -65 -68zM120 520l109 148h153l110 -148h-108l-78 87l-79 -87h-107z" />
<glyph unicode="&#xe3;" horiz-adv-x="611" d="M225 323h-176q4 89 80 133q61 35 159 35q247 0 247 -172v-211h55v-108h-214v72h-2q-53 -86 -169 -86q-74 0 -127 38.5t-53 110.5q0 71 54.5 113t128.5 47q52 4 78 4q13 0 39.5 -0.5t39.5 -0.5q0 51 -11 70q-17 30 -58 30q-35 0 -53.5 -20.5t-17.5 -54.5zM198 138 q0 -49 66 -49q47 0 76.5 36.5t29.5 84.5q-23 1 -42 1q-43 0 -65 -5q-65 -14 -65 -68zM424 668h72q0 -47 -29 -97.5t-72 -50.5q-40 0 -101 26q-55 21 -70 21q-18 0 -32 -13.5t-16 -33.5h-72q0 57 28.5 102.5t81.5 45.5q40 0 90 -20q48 -20 78 -20q15 0 27 12t15 28z" />
<glyph unicode="&#xe4;" horiz-adv-x="611" d="M225 323h-176q4 89 80 133q61 35 159 35q247 0 247 -172v-211h55v-108h-214v72h-2q-53 -86 -169 -86q-74 0 -127 38.5t-53 110.5q0 71 54.5 113t128.5 47q52 4 78 4q13 0 39.5 -0.5t39.5 -0.5q0 51 -11 70q-17 30 -58 30q-35 0 -53.5 -20.5t-17.5 -54.5zM198 138 q0 -49 66 -49q47 0 76.5 36.5t29.5 84.5q-23 1 -42 1q-43 0 -65 -5q-65 -14 -65 -68zM121 520v148h149v-148h-149zM342 520v148h149v-148h-149z" />
<glyph unicode="&#xe5;" horiz-adv-x="611" d="M225 323h-176q4 89 80 133q61 35 159 35q247 0 247 -172v-211h55v-108h-214v72h-2q-53 -86 -169 -86q-74 0 -127 38.5t-53 110.5q0 71 54.5 113t128.5 47q52 4 78 4q13 0 39.5 -0.5t39.5 -0.5q0 51 -11 70q-17 30 -58 30q-35 0 -53.5 -20.5t-17.5 -54.5zM198 138 q0 -49 66 -49q47 0 76.5 36.5t29.5 84.5q-23 1 -42 1q-43 0 -65 -5q-65 -14 -65 -68zM306 528q-45 0 -78 33t-33 78t33 78t78 33t78 -33t33 -78t-33 -78t-78 -33zM306 688q-21 0 -35 -14t-14 -35q0 -20 14 -34.5t35 -14.5t35 14.5t14 34.5q0 21 -14 35t-35 14z" />
<glyph unicode="&#xe6;" horiz-adv-x="889" d="M221 336h-170q6 82 67 121q52 34 140 34q155 0 192 -82q49 82 189 82q123 0 172.5 -71t49.5 -203v-24h-330v-20q6 -42 22.5 -63t55.5 -21q55 0 66 42q2 8 2 12h179q-17 -82 -80 -123q-55 -34 -147 -34q-72 0 -130.5 25t-76.5 85h-2q-23 -62 -68.5 -86t-115.5 -24 q-208 0 -208 151q0 154 244 154q14 0 43 -1t44 -1q0 50 -14 74.5t-57 24.5q-32 0 -49 -11.5t-18 -40.5zM614 388q-67 0 -79 -76q0 -4 -0.5 -10.5t-1.5 -10.5h145q0 28 -3.5 46.5t-18.5 34.5t-42 16zM201 135q0 -46 65 -46q43 0 67 30t26 75q-8 0 -24.5 0.5t-24.5 0.5 q-109 0 -109 -60z" />
<glyph unicode="&#xe7;" d="M534 477v-185h-155v8q0 28 -18 51q-21 26 -56 26q-86 0 -86 -127q0 -150 86 -150q34 0 53 21q17 19 19 52h159q0 -14 -3 -26q-6 -45 -28.5 -77.5t-57.5 -50t-72 -25.5t-80 -8l-31 -52q21 6 44 6q35 0 63 -19.5t28 -53.5q0 -40 -38 -62.5t-80 -22.5q-75 0 -133 23l15 46 q49 -27 90 -27q22 0 38 8.5t16 26.5q0 20 -13 29.5t-30 9.5q-16 0 -46 -6l-22 20l48 78q-103 12 -160.5 79t-57.5 175q0 113 59.5 180t170.5 67q100 0 132 -70h2v56h144z" />
<glyph unicode="&#xe8;" d="M531 193h-323q0 -104 72 -104q54 0 67 50h175q-2 -14 -4 -21q-44 -132 -238 -132q-120 0 -187.5 67t-67.5 187q0 115 67 183t183 68q182 0 232 -128q24 -68 24 -170zM208 291h140q0 45 -15.5 71t-57.5 26q-21 0 -35.5 -8t-21 -23t-8.5 -30t-2 -36zM272 668l105 -148h-122 l-156 123v25h173z" />
<glyph unicode="&#xe9;" d="M531 193h-323q0 -104 72 -104q54 0 67 50h175q-2 -14 -4 -21q-44 -132 -238 -132q-120 0 -187.5 67t-67.5 187q0 115 67 183t183 68q182 0 232 -128q24 -68 24 -170zM208 291h140q0 45 -15.5 71t-57.5 26q-21 0 -35.5 -8t-21 -23t-8.5 -30t-2 -36zM287 668h170v-24 l-159 -124h-119z" />
<glyph unicode="&#xea;" d="M531 193h-323q0 -104 72 -104q54 0 67 50h175q-2 -14 -4 -21q-44 -132 -238 -132q-120 0 -187.5 67t-67.5 187q0 115 67 183t183 68q182 0 232 -128q24 -68 24 -170zM208 291h140q0 45 -15.5 71t-57.5 26q-21 0 -35.5 -8t-21 -23t-8.5 -30t-2 -36zM92 520l109 148h153 l110 -148h-108l-78 87l-79 -87h-107z" />
<glyph unicode="&#xeb;" d="M531 193h-323q0 -104 72 -104q54 0 67 50h175q-2 -14 -4 -21q-44 -132 -238 -132q-120 0 -187.5 67t-67.5 187q0 115 67 183t183 68q182 0 232 -128q24 -68 24 -170zM208 291h140q0 45 -15.5 71t-57.5 26q-21 0 -35.5 -8t-21 -23t-8.5 -30t-2 -36zM93 520v148h149v-148 h-149zM314 520v148h149v-148h-149z" />
<glyph unicode="&#xec;" horiz-adv-x="333" d="M318 0h-294v108h56v261h-56v108h244v-369h50v-108zM161 668l105 -148h-122l-156 123v25h173z" />
<glyph unicode="&#xed;" horiz-adv-x="333" d="M318 0h-294v108h56v261h-56v108h244v-369h50v-108zM176 668h170v-24l-159 -124h-119z" />
<glyph unicode="&#xee;" horiz-adv-x="333" d="M318 0h-294v108h56v261h-56v108h244v-369h50v-108zM-19 520l109 148h153l110 -148h-108l-78 87l-79 -87h-107z" />
<glyph unicode="&#xef;" horiz-adv-x="333" d="M318 0h-294v108h56v261h-56v108h244v-369h50v-108zM-18 520v148h149v-148h-149zM203 520v148h149v-148h-149z" />
<glyph unicode="&#xf0;" horiz-adv-x="611" d="M304 100q26 0 45 13t27.5 34t12 40t3.5 39q-3 128 -88 128q-47 0 -66 -40t-19 -89q0 -18 3.5 -37t12 -40t26.5 -34.5t43 -13.5zM198 504l-40 58l88 37q-51 35 -94 52l117 69q62 -26 113 -63l116 49l30 -62l-85 -36q142 -133 142 -324q0 -137 -80 -217.5t-201 -80.5 q-66 0 -117.5 19.5t-81 47t-48.5 63t-25 63t-6 50.5q0 104 77 171.5t191 67.5q59 0 116 -36h2q-45 74 -102 120z" />
<glyph unicode="&#xf1;" horiz-adv-x="667" d="M24 0v108h56v261h-56v108h226v-94h2q19 56 68.5 82t114.5 26q73 0 115.5 -39t42.5 -109v-235h50v-108h-284v108h46v188q0 32 -16.5 51.5t-47.5 19.5q-34 0 -53.5 -20.5t-19.5 -53.5v-185h42v-108h-286zM452 668h72q0 -47 -29 -97.5t-72 -50.5q-40 0 -101 26 q-55 21 -70 21q-18 0 -32 -13.5t-16 -33.5h-72q0 57 28.5 102.5t81.5 45.5q40 0 90 -20q48 -20 78 -20q15 0 27 12t15 28z" />
<glyph unicode="&#xf2;" horiz-adv-x="611" d="M219 239q0 -138 87 -138t87 138t-87 138t-87 -138zM26 238q0 118 80 185.5t200 67.5t200 -67.5t80 -185.5q0 -117 -80 -184.5t-200 -67.5t-200 67.5t-80 184.5zM300 668l105 -148h-122l-156 123v25h173z" />
<glyph unicode="&#xf3;" horiz-adv-x="611" d="M219 239q0 -138 87 -138t87 138t-87 138t-87 -138zM26 238q0 118 80 185.5t200 67.5t200 -67.5t80 -185.5q0 -117 -80 -184.5t-200 -67.5t-200 67.5t-80 184.5zM315 668h170v-24l-159 -124h-119z" />
<glyph unicode="&#xf4;" horiz-adv-x="611" d="M219 239q0 -138 87 -138t87 138t-87 138t-87 -138zM26 238q0 118 80 185.5t200 67.5t200 -67.5t80 -185.5q0 -117 -80 -184.5t-200 -67.5t-200 67.5t-80 184.5zM120 520l109 148h153l110 -148h-108l-78 87l-79 -87h-107z" />
<glyph unicode="&#xf5;" horiz-adv-x="611" d="M219 239q0 -138 87 -138t87 138t-87 138t-87 -138zM26 238q0 118 80 185.5t200 67.5t200 -67.5t80 -185.5q0 -117 -80 -184.5t-200 -67.5t-200 67.5t-80 184.5zM424 668h72q0 -47 -29 -97.5t-72 -50.5q-40 0 -101 26q-55 21 -70 21q-18 0 -32 -13.5t-16 -33.5h-72 q0 57 28.5 102.5t81.5 45.5q40 0 90 -20q48 -20 78 -20q15 0 27 12t15 28z" />
<glyph unicode="&#xf6;" horiz-adv-x="611" d="M219 239q0 -138 87 -138t87 138t-87 138t-87 -138zM26 238q0 118 80 185.5t200 67.5t200 -67.5t80 -185.5q0 -117 -80 -184.5t-200 -67.5t-200 67.5t-80 184.5zM121 520v148h149v-148h-149zM342 520v148h149v-148h-149z" />
<glyph unicode="&#xf7;" horiz-adv-x="600" d="M553 193h-506v120h506v-120zM301 553q37 0 64 -27.5t27 -65.5q0 -35 -27 -63t-63 -28q-38 0 -65.5 27t-27.5 64q0 38 27 65.5t65 27.5zM302 -47q-38 0 -65.5 27.5t-27.5 65.5t27 64.5t65 26.5q37 0 64 -27t27 -64q0 -35 -27.5 -64t-62.5 -29z" />
<glyph unicode="&#xf8;" horiz-adv-x="611" d="M23 12l63 60q-60 65 -60 167q0 117 80 184.5t200 67.5q100 0 173 -47l66 62l41 -40l-62 -59q62 -67 62 -168q0 -120 -79 -186.5t-201 -66.5q-104 0 -175 47l-67 -63zM390 279l-149 -141q21 -38 65 -38q26 0 44 13t27 35.5t12.5 44.5t3.5 46q0 21 -3 40zM222 201l148 140 q-20 36 -64 36q-87 0 -87 -138q0 -19 3 -38z" />
<glyph unicode="&#xf9;" horiz-adv-x="667" d="M579 477v-369h56v-108h-226v94h-2q-19 -56 -68.5 -82t-114.5 -26q-73 0 -115.5 39t-42.5 109v235h-48v108h236v-296q0 -32 16.5 -51.5t47.5 -19.5q34 0 53.5 20.5t19.5 53.5v185h-42v108h230zM328 668l105 -148h-122l-156 123v25h173z" />
<glyph unicode="&#xfa;" horiz-adv-x="667" d="M579 477v-369h56v-108h-226v94h-2q-19 -56 -68.5 -82t-114.5 -26q-73 0 -115.5 39t-42.5 109v235h-48v108h236v-296q0 -32 16.5 -51.5t47.5 -19.5q34 0 53.5 20.5t19.5 53.5v185h-42v108h230zM343 668h170v-24l-159 -124h-119z" />
<glyph unicode="&#xfb;" horiz-adv-x="667" d="M579 477v-369h56v-108h-226v94h-2q-19 -56 -68.5 -82t-114.5 -26q-73 0 -115.5 39t-42.5 109v235h-48v108h236v-296q0 -32 16.5 -51.5t47.5 -19.5q34 0 53.5 20.5t19.5 53.5v185h-42v108h230zM148 520l109 148h153l110 -148h-108l-78 87l-79 -87h-107z" />
<glyph unicode="&#xfc;" horiz-adv-x="667" d="M579 477v-369h56v-108h-226v94h-2q-19 -56 -68.5 -82t-114.5 -26q-73 0 -115.5 39t-42.5 109v235h-48v108h236v-296q0 -32 16.5 -51.5t47.5 -19.5q34 0 53.5 20.5t19.5 53.5v185h-42v108h230zM149 520v148h149v-148h-149zM370 520v148h149v-148h-149z" />
<glyph unicode="&#xfd;" horiz-adv-x="611" d="M14 369v108h280v-108h-50l79 -223h2l72 223h-49v108h249v-108h-33l-194 -437q-32 -72 -71 -97.5t-118 -25.5q-35 0 -80 7v119q23 -6 50 -6q75 0 75 37q0 18 -10 41l-164 362h-38zM315 668h170v-24l-159 -124h-119z" />
<glyph unicode="&#xfe;" horiz-adv-x="667" d="M80 -69v637h-54v108h242v-271h2q13 43 57 64.5t105 21.5q103 0 155.5 -69.5t52.5 -176.5q0 -259 -222 -259q-46 0 -89 23t-59 63h-2v-141h67v-108h-309v108h54zM365 100q82 0 82 134q0 27 -2 47t-9.5 44.5t-25 38t-44.5 13.5q-56 0 -80 -40t-24 -100q0 -137 103 -137z " />
<glyph unicode="&#xff;" horiz-adv-x="611" d="M14 369v108h280v-108h-50l79 -223h2l72 223h-49v108h249v-108h-33l-194 -437q-32 -72 -71 -97.5t-118 -25.5q-35 0 -80 7v119q23 -6 50 -6q75 0 75 37q0 18 -10 41l-164 362h-38zM121 520v148h149v-148h-149zM342 520v148h149v-148h-149z" />
<glyph unicode="&#x131;" horiz-adv-x="333" d="M318 0h-294v108h56v261h-56v108h244v-369h50v-108z" />
<glyph unicode="&#x141;" horiz-adv-x="611" d="M35 146v104l49 34v256h-64v114h347v-114h-95v-126l145 100v-101l-145 -101v-198h157v136h154v-250h-563v114h64v66z" />
<glyph unicode="&#x142;" horiz-adv-x="333" d="M24 211v108l56 42v207h-56v108h244v-170l50 39v-108l-50 -39v-290h50v-108h-294v108h56v145z" />
<glyph unicode="&#x152;" horiz-adv-x="1000" d="M457 104v446q-38 4 -54 4q-95 0 -139.5 -65.5t-44.5 -158.5q0 -102 46.5 -166t133.5 -64q18 0 58 4zM798 451v-233h-114v60h-59v-164h204v100h144v-214h-429q-29 0 -78 -7q-65 -7 -98 -7q-157 0 -249.5 95.5t-92.5 254.5q0 147 97.5 239.5t244.5 92.5q45 0 108 -7 q84 -7 109 -7h389v-203h-144v89h-205v-154h59v65h114z" />
<glyph unicode="&#x153;" horiz-adv-x="889" d="M293 388q-25 0 -42.5 -15.5t-25.5 -40.5t-11 -47.5t-3 -46.5q0 -149 78 -149q32 0 52 26.5t26 56t6 61.5q0 155 -80 155zM683 144h177q-7 -76 -77 -120q-61 -38 -144 -38q-64 0 -107.5 17.5t-72.5 65.5q-20 -46 -73.5 -64.5t-115.5 -18.5q-111 0 -179 70.5t-68 181.5 q0 114 71 183.5t186 69.5q60 0 112 -19.5t70 -66.5q23 46 73.5 66t110.5 20q113 0 166.5 -68t53.5 -205v-25h-319q0 -40 20 -72t57 -32q24 0 41 15.5t18 39.5zM547 291h136q0 97 -67 97q-33 0 -50.5 -29.5t-18.5 -67.5z" />
<glyph unicode="&#x160;" horiz-adv-x="611" d="M25 0v225h165v-7q0 -51 28 -84q31 -34 87 -34q38 0 65.5 17.5t27.5 52.5q0 27 -27.5 47t-68.5 30.5t-88.5 28t-88.5 37.5t-68.5 61t-27.5 97q0 99 67.5 148t170.5 49q47 0 92.5 -14.5t57.5 -49.5h2v50h154v-207h-153v12q0 44 -26 68q-31 27 -85 27q-36 0 -64 -15t-28 -48 q0 -25 27.5 -43t68.5 -28t88.5 -26.5t88.5 -37t68.5 -61.5t27.5 -98q0 -211 -243 -211q-129 0 -162 77h-2v-63h-154zM120 845h107l79 -84l78 84h108l-110 -148h-153z" />
<glyph unicode="&#x161;" horiz-adv-x="500" d="M35 0v168h137q-1 -34 19.5 -59t54.5 -25q20 0 36.5 11.5t16.5 31.5q0 23 -20 36.5t-50 18t-65.5 14t-65.5 22t-50 43t-20 76.5q0 69 45 111.5t114 42.5q111 0 142 -65h2v51h125v-163h-139q0 33 -17.5 56t-49.5 23q-49 0 -49 -39q0 -20 20 -32t50 -17t65.5 -15t65.5 -23.5 t50 -45t20 -78.5q0 -69 -47 -113t-116 -44q-115 0 -142 66h-2v-52h-130zM64 668h107l79 -84l78 84h108l-110 -148h-153z" />
<glyph unicode="&#x178;" horiz-adv-x="722" d="M709 654v-114h-41l-214 -308v-118h91v-114h-368v114h89v114l-212 312h-41v114h333v-114h-76l106 -171l109 171h-73v114h297zM176 697v148h149v-148h-149zM397 697v148h149v-148h-149z" />
<glyph unicode="&#x17d;" horiz-adv-x="667" d="M30 0v139l366 401h-201v-109h-154v223h590v-140l-374 -400h226v114h154v-228h-607zM148 845h107l79 -84l78 84h108l-110 -148h-153z" />
<glyph unicode="&#x17e;" d="M43 0v127l261 252h-116v-54h-138v152h460v-127l-263 -252h128v61h138v-159h-470zM92 668h107l79 -84l78 84h108l-110 -148h-153z" />
<glyph unicode="&#x192;" d="M125 437h91q22 113 34 143q28 65 99 81q30 7 71 7q23 0 65 -5t54 -6l-24 -126q-7 0 -20 1.5t-20 1.5q-44 0 -52 -31l-16 -66h93l-22 -120h-96l-66 -338q-18 -91 -59 -130.5t-129 -39.5q-67 0 -119 16l22 124q28 -6 42 -6q23 0 36.5 20.5t23.5 65.5l58 288h-89z" />
<glyph unicode="&#x2c6;" horiz-adv-x="278" d="M-47 520l109 148h153l110 -148h-108l-78 87l-79 -87h-107z" />
<glyph unicode="&#x2c7;" horiz-adv-x="278" d="M-47 668h107l79 -84l78 84h108l-110 -148h-153z" />
<glyph unicode="&#x2c9;" horiz-adv-x="278" d="M-32 574v80h342v-80h-342z" />
<glyph unicode="&#x2d8;" horiz-adv-x="278" d="M-13 668h78q3 -28 24 -46q22 -17 50 -17q65 0 74 63h78q0 -66 -41.5 -107t-108.5 -41q-71 0 -112.5 38.5t-41.5 109.5z" />
<glyph unicode="&#x2d9;" horiz-adv-x="278" d="M65 520v148h149v-148h-149z" />
<glyph unicode="&#x2da;" horiz-adv-x="278" d="M139 446q-45 0 -78 33t-33 78t33 78t78 33t78 -33t33 -78t-33 -78t-78 -33zM139 606q-21 0 -35 -14t-14 -35q0 -20 14 -34.5t35 -14.5t35 14.5t14 34.5q0 21 -14 35t-35 14z" />
<glyph unicode="&#x2db;" horiz-adv-x="278" d="M225 -134l12 -25q-49 -49 -104 -49q-93 0 -93 79q0 76 105 135h70q-44 -36 -63.5 -64.5t-19.5 -60.5q0 -43 37 -43q33 0 56 28z" />
<glyph unicode="&#x2dc;" horiz-adv-x="278" d="M263 668h72q0 -47 -29 -97.5t-72 -50.5q-40 0 -101 26q-55 21 -70 21q-18 0 -32 -13.5t-16 -33.5h-72q0 57 28.5 102.5t81.5 45.5q40 0 90 -20q48 -20 78 -20q15 0 27 12t15 28z" />
<glyph unicode="&#x2dd;" horiz-adv-x="278" d="M32 668h170v-24l-159 -124h-119zM266 668h170v-24l-159 -124h-119z" />
<glyph unicode="&#x3a9;" horiz-adv-x="701" d="M161 118v3q-48 42 -81.5 105.5t-33.5 143.5q0 122 85 209.5t221 87.5q71 0 130 -26.5t95 -69.5t55.5 -93.5t19.5 -101.5q0 -81 -33 -146t-84 -109v-3h131v-118h-276v88q111 68 111 256q0 87 -40 145t-109 58t-111.5 -58t-42.5 -150q0 -94 31 -159.5t80 -91.5v-88h-277 v118h129z" />
<glyph unicode="&#x3bc;" horiz-adv-x="667" d="M579 477v-369h56v-108h-226v94h-2q-13 -52 -55.5 -76t-96.5 -24v-171h-189v546h-48v108h236v-296q0 -32 16.5 -51.5t47.5 -19.5q34 0 53.5 20.5t19.5 53.5v185h-42v108h230z" />
<glyph unicode="&#x3c0;" horiz-adv-x="607" d="M585 373h-64v-228q0 -90 12 -145h-145q-18 29 -18 138v235h-115q-3 -81 -19 -193.5t-38 -179.5h-146q23 81 39 191t17 182q-63 0 -91 -9l-16 97q42 35 171 35h425z" />
<glyph unicode="&#x2000;" horiz-adv-x="458" />
<glyph unicode="&#x2001;" horiz-adv-x="917" />
<glyph unicode="&#x2002;" horiz-adv-x="458" />
<glyph unicode="&#x2003;" horiz-adv-x="917" />
<glyph unicode="&#x2004;" horiz-adv-x="305" />
<glyph unicode="&#x2005;" horiz-adv-x="229" />
<glyph unicode="&#x2006;" horiz-adv-x="152" />
<glyph unicode="&#x2007;" horiz-adv-x="152" />
<glyph unicode="&#x2008;" horiz-adv-x="114" />
<glyph unicode="&#x2009;" horiz-adv-x="183" />
<glyph unicode="&#x200a;" horiz-adv-x="50" />
<glyph unicode="&#x2010;" horiz-adv-x="333" d="M40 199v140h253v-140h-253z" />
<glyph unicode="&#x2011;" horiz-adv-x="333" d="M40 199v140h253v-140h-253z" />
<glyph unicode="&#x2013;" horiz-adv-x="500" d="M0 202v134h500v-134h-500z" />
<glyph unicode="&#x2014;" horiz-adv-x="1000" d="M1000 202h-1000v134h1000v-134z" />
<glyph unicode="&#x2018;" horiz-adv-x="278" d="M223 359h-168v163l43 132h124l-44 -132h45v-163z" />
<glyph unicode="&#x2019;" horiz-adv-x="278" d="M55 654h168v-163l-43 -132h-124l44 132h-45v163z" />
<glyph unicode="&#x201a;" horiz-adv-x="278" d="M55 163h168v-163l-43 -133h-124l44 133h-45v163z" />
<glyph unicode="&#x201c;" d="M65 359v163l43 132h124l-44 -132h45v-163h-168zM323 359v163l43 132h124l-44 -132h45v-163h-168z" />
<glyph unicode="&#x201d;" d="M323 654h168v-163l-43 -132h-124l44 132h-45v163zM65 654h168v-163l-43 -132h-124l44 132h-45v163z" />
<glyph unicode="&#x201e;" d="M323 163h168v-163l-43 -133h-124l44 133h-45v163zM65 163h168v-163l-43 -133h-124l44 133h-45v163z" />
<glyph unicode="&#x2020;" d="M194 376h-150v125h150v153h168v-153h151v-125h-151v-376h-168v376z" />
<glyph unicode="&#x2021;" d="M44 522h155v132h159v-132h155v-114h-155v-163h155v-114h-155v-131h-159v131h-155v114h155v163h-155v114z" />
<glyph unicode="&#x2022;" horiz-adv-x="500" d="M249 491q68 0 116 -48t48 -116q0 -67 -48.5 -115t-115.5 -48t-115 48t-48 115q0 68 47.5 116t115.5 48z" />
<glyph unicode="&#x2026;" horiz-adv-x="1000" d="M83 168h168v-168h-168v168zM416 168h168v-168h-168v168zM749 168h168v-168h-168v168z" />
<glyph unicode="&#x202f;" horiz-adv-x="183" />
<glyph unicode="&#x2030;" horiz-adv-x="1000" d="M156 403q38 0 38 95v10v13q0 3 -0.5 12.5t-1.5 13.5l-3 12q-2 8 -4.5 12t-6.5 8.5t-9.5 6.5t-12.5 2q-14 0 -23 -9t-12 -28.5t-3.5 -28t-0.5 -27.5q0 -92 39 -92zM152 668q77 0 116.5 -44.5t39.5 -120.5q0 -82 -37 -131t-120 -49q-75 0 -111.5 48.5t-36.5 123.5 q0 71 38 122t111 51zM511 331q77 0 116.5 -44.5t39.5 -120.5q0 -82 -37 -131t-120 -49q-75 0 -111.5 48.5t-36.5 123.5q0 71 38 122t111 51zM515 66q38 0 38 95v10v13q0 3 -0.5 12.5t-1.5 13.5l-3 12q-2 8 -4.5 12t-6.5 8.5t-9.5 6.5t-12.5 2q-14 0 -23 -9t-12 -28.5 t-3.5 -28t-0.5 -27.5q0 -92 39 -92zM841 331q77 0 116.5 -44.5t39.5 -120.5q0 -82 -37 -131t-120 -49q-75 0 -111.5 48.5t-36.5 123.5q0 71 38 122t111 51zM845 66q38 0 38 95v10v13q0 3 -0.5 12.5t-1.5 13.5l-3 12q-2 8 -4.5 12t-6.5 8.5t-9.5 6.5t-12.5 2q-14 0 -23 -9 t-12 -28.5t-3.5 -28t-0.5 -27.5q0 -92 39 -92zM170 -22h-94l425 698h94z" />
<glyph unicode="&#x2039;" horiz-adv-x="278" d="M31 230l84 200h120l-84 -200l84 -200h-120z" />
<glyph unicode="&#x203a;" horiz-adv-x="278" d="M163 430l84 -200l-84 -200h-120l84 200l-84 200h120z" />
<glyph unicode="&#x2044;" horiz-adv-x="167" d="M8 -22h-97l249 698h96z" />
<glyph unicode="&#x205f;" horiz-adv-x="229" />
<glyph unicode="&#x20ac;" d="M385 492q0 25 -19 43t-41 18q-57 0 -69 -120h214l-31 -84h-187v-52h168l-31 -85h-132q13 -113 68 -113q22 0 40.5 17t18.5 42h146q0 -76 -54.5 -124.5t-152.5 -48.5q-206 0 -245 227h-64l31 85h24v52h-55l31 84h32q37 234 246 234q55 0 88 -44v30h119v-161h-145z" />
<glyph unicode="&#x2113;" horiz-adv-x="525" d="M448 191l59 -62q-73 -140 -218 -140q-156 0 -184 144v8q-8 -5 -24 -17t-24 -17l-36 76q13 11 40.5 31.5t41.5 32.5v221q0 124 51.5 188t135.5 64q73 0 111 -49.5t38 -125.5q0 -79 -48.5 -155.5t-143.5 -163.5v-39q2 -37 23.5 -58.5t54.5 -21.5q66 0 123 84zM247 477v-121 q97 110 97 194q0 68 -45 68q-52 0 -52 -141z" />
<glyph unicode="&#x2122;" horiz-adv-x="1000" d="M380 654v-88h-112v-324h-120v324h-112v88h344zM630 654l89 -239l89 239h156v-412h-105v270h-2l-94 -270h-88l-94 270h-2v-270h-105v412h156z" />
<glyph unicode="&#x2126;" horiz-adv-x="701" d="M161 118v3q-48 42 -81.5 105.5t-33.5 143.5q0 122 85 209.5t221 87.5q71 0 130 -26.5t95 -69.5t55.5 -93.5t19.5 -101.5q0 -81 -33 -146t-84 -109v-3h131v-118h-276v88q111 68 111 256q0 87 -40 145t-109 58t-111.5 -58t-42.5 -150q0 -94 31 -159.5t80 -91.5v-88h-277 v118h129z" />
<glyph unicode="&#x212e;" horiz-adv-x="822" d="M789 317h-613q-5 0 -5 -4v-185q0 -11 8 -21q98 -101 232 -101q147 0 244 113h55q-52 -61 -131 -96.5t-169 -35.5q-157 0 -267.5 99.5t-110.5 240.5t110.5 241t267.5 100t268 -100t111 -241v-10zM650 342v186q0 13 -9 22q-97 97 -230 97t-231 -100q-9 -9 -9 -23v-182 q0 -6 5 -6h470q4 0 4 6z" />
<glyph unicode="&#x2202;" horiz-adv-x="578" d="M100 577l-40 108q77 56 190 56q121 0 202.5 -96t81.5 -265q0 -179 -77.5 -284.5t-210.5 -105.5q-100 0 -156.5 71.5t-56.5 155.5q0 111 60.5 179.5t153.5 68.5q51 0 87.5 -23t52.5 -48h1v26q0 80 -43 140.5t-115 60.5t-130 -44zM261 110h1q44 0 74.5 53t37.5 116 q-6 23 -32 46.5t-62 23.5q-44 0 -72 -41t-28 -97q0 -42 23 -71.5t58 -29.5z" />
<glyph unicode="&#x2206;" horiz-adv-x="653" d="M23 0v81l217 589h179l209 -587v-83h-605zM179 118h286l-91 241q-6 21 -25.5 80.5t-24.5 81.5h-3q-4 -15 -21.5 -68.5t-24.5 -79.5z" />
<glyph unicode="&#x220f;" horiz-adv-x="717" d="M695 526h-98v-617h-147v617h-184v-617h-147v617h-97v131h673v-131z" />
<glyph unicode="&#x2211;" horiz-adv-x="553" d="M537 -91h-515v91l224 283l-216 273v101h489v-124h-289v-3l183 -224l-206 -260v-3h330v-134z" />
<glyph unicode="&#x2212;" horiz-adv-x="600" d="M553 193h-506v120h506v-120z" />
<glyph unicode="&#x2215;" horiz-adv-x="167" d="M8 -22h-97l249 698h96z" />
<glyph unicode="&#x2219;" horiz-adv-x="278" d="M136 334q39 0 63 -23t24 -61q0 -37 -24 -60.5t-63 -23.5q-34 0 -57.5 24t-23.5 60q0 37 23.5 60.5t57.5 23.5z" />
<glyph unicode="&#x221a;" horiz-adv-x="592" d="M607 790l-224 -920h-116l-143 401l-72 -29l-23 78l182 75l93 -280q18 -71 21 -86l2 -1l7 40q5 33 9 54l161 668h103z" />
<glyph unicode="&#x221e;" horiz-adv-x="749" d="M703 271v-1q0 -78 -47 -125t-111 -47q-94 0 -170 106q-41 -52 -81.5 -79t-94.5 -27q-62 0 -108.5 47t-46.5 120q0 75 46.5 122.5t117.5 47.5q94 0 171 -102q1 1 11 12.5t12.5 14t12.5 13.5t15 15l14 12q11 8 18 12l18 9q12 6 22 8t22.5 4t25.5 2q65 0 109 -45.5 t44 -118.5zM209 175h1q23 0 47 14.5t39 30t37 42.5q-27 38 -38 52t-35.5 30t-52.5 16q-38 0 -61 -26t-23 -69q-1 -37 24 -63.5t62 -26.5zM542 360h-1q-11 0 -22 -2.5t-22 -9.5t-18 -12t-18 -17l-15 -17l-16 -18q-11 -13 -12 -15q41 -55 68 -74.5t61 -19.5q35 0 56.5 28.5 t21.5 61.5q0 41 -23 68t-60 27z" />
<glyph unicode="&#x222b;" horiz-adv-x="396" d="M376 807l-13 -99q-20 8 -35 8q-32 0 -49 -26q-23 -30 -23 -152q0 -76 7.5 -213t7.5 -228q0 -126 -33 -187q-40 -78 -138 -78q-51 0 -81 15l17 102q22 -9 42 -9q29 0 42 18q24 31 24 138q0 91 -7.5 233t-7.5 223q0 84 14 134.5t47 84.5q43 46 124 46q40 0 62 -10z" />
<glyph unicode="&#x2248;" horiz-adv-x="533" d="M447 438l50 -48q-26 -47 -62 -74.5t-74 -27.5q-46 0 -107 38q-49 31 -81 31q-20 0 -37.5 -11.5t-27 -22t-25.5 -33.5l-51 48q23 43 62.5 72t83.5 29t101 -34q3 -2 10 -6l9 -5l9 -6l8 -4l7 -4q5 -2 8 -3t7 -2.5t7.5 -2t7.5 -1t8 -0.5q26 0 45.5 16.5t41.5 50.5zM447 252 l50 -49q-56 -101 -137 -101q-45 0 -106 38q-52 32 -81 32q-20 0 -37.5 -11.5t-26.5 -22.5t-26 -35l-51 49q23 43 62.5 71.5t83.5 28.5q45 0 100 -32q7 -4 20.5 -12.5t20.5 -12.5t18.5 -7.5t22.5 -3.5q26 0 44.5 16t42.5 52z" />
<glyph unicode="&#x2260;" horiz-adv-x="533" d="M398 490l-35 -79h124v-83h-156l-53 -123h209v-82h-241l-47 -108l-65 26l36 82h-125v82h157l53 123h-210v83h241l46 105z" />
<glyph unicode="&#x2264;" horiz-adv-x="533" d="M485 98l-435 211v90l434 211v-95l-353 -160v-2l354 -160v-95zM488 -19h-441v84h441v-84z" />
<glyph unicode="&#x2265;" horiz-adv-x="533" d="M51 610l435 -212v-89l-434 -211v95l352 160v2l-353 160v95zM486 -19h-439v84h439v-84z" />
<glyph unicode="&#x25ca;" horiz-adv-x="591" d="M546 328l-195 -376h-117l-188 376l193 376h117zM416 324l-101 209q-14 40 -17 56h-4q-6 -25 -18 -56l-101 -202l102 -212q11 -33 16 -53h4q14 44 17 51z" />
</font>
</defs>
</svg>
