<?xml version="1.0" standalone="no"?>
<!DOCTYPE svg PUBLIC "-//W3C//DTD SVG 1.1//EN" "http://www.w3.org/Graphics/SVG/1.1/DTD/svg11.dtd" >
<svg xmlns="http://www.w3.org/2000/svg">
<metadata>
This is a custom SVG webfont generated by Font Squirrel.
Designer    : Adrian Frutiger
Foundry URL : httpwwwadobecomtype
</metadata>
<defs>
<font id="webfontKqCC3CdP" horiz-adv-x="500" >
<font-face units-per-em="1000" ascent="654" descent="-346" />
<missing-glyph horiz-adv-x="250" />
<glyph unicode=" "  horiz-adv-x="250" />
<glyph unicode="&#x09;" horiz-adv-x="250" />
<glyph unicode="&#xa0;" horiz-adv-x="250" />
<glyph unicode="!" horiz-adv-x="333" d="M201 654l-14 -508h-42l-14 508h70zM135 0v62h62v-62h-62z" />
<glyph unicode="&#x22;" horiz-adv-x="389" d="M163 654v-193h-50v193h50zM276 654v-193h-50v193h50z" />
<glyph unicode="#" d="M87 0l32 214h-114v44h121l22 146h-115v44h121l31 206h51l-31 -206h139l31 206h51l-31 -206h100v-44h-106l-22 -146h100v-44h-107l-32 -214h-51l32 214h-139l-32 -214h-51zM338 404h-139l-22 -146h139z" />
<glyph unicode="$" d="M229 368v252q-57 0 -96.5 -36.5t-39.5 -97.5q0 -26 12 -46.5t35.5 -34t41.5 -21t47 -16.5zM273 292v-258q57 5 95 38t38 91q0 15 -1.5 27.5t-6.5 22.5l-8 17q-4 8 -13.5 15t-13.5 11t-17 9.5t-17 7.5t-20 7.5t-20 6.5zM36 0v210h46q1 -72 40 -120.5t107 -55.5v272l-67 24 q-125 43 -125 148q0 86 54.5 136t137.5 50v81h44v-81q81 -9 129 -88h3v78h44v-210h-46q-1 149 -130 176v-266l43 -16q76 -25 111 -60.5t35 -110.5q0 -79 -55.5 -126.5t-133.5 -50.5v-91h-44v91q-99 12 -147 93h-2v-83h-44z" />
<glyph unicode="%" horiz-adv-x="778" d="M460 160q0 73 27.5 121.5t91.5 48.5t91.5 -48.5t27.5 -121.5t-27.5 -121.5t-91.5 -48.5t-91.5 48.5t-27.5 121.5zM510 160q0 -136 69 -136t69 136t-69 136t-69 -136zM80 494q0 73 27.5 121.5t91.5 48.5t91.5 -48.5t27.5 -121.5t-27.5 -121.5t-91.5 -48.5t-91.5 48.5 t-27.5 121.5zM130 494q0 -136 69 -136t69 136t-69 136t-69 -136zM186 -18l361 690h42l-360 -690h-43z" />
<glyph unicode="&#x26;" horiz-adv-x="778" d="M450 119l-207 209q-60 -27 -94.5 -63.5t-34.5 -92.5q0 -63 46 -100.5t111 -37.5q52 0 102 22.5t77 62.5zM168 524q0 -13 5 -27.5t10 -24t18.5 -25.5t18.5 -21l22 -21l18 -18q3 2 23.5 13.5t26.5 15.5l22 15q17 11 23 19l15 20q10 13 13.5 26.5t3.5 28.5q0 45 -30.5 70 t-76.5 25t-79 -26.5t-33 -69.5zM683 383v-44h-87q-5 -118 -71 -213l80 -82h102v-44h-139l-82 86q-79 -96 -216 -96q-92 0 -152 47.5t-60 136.5q0 65 42.5 114.5t107.5 74.5q-33 33 -47 49t-31.5 49.5t-17.5 64.5q0 66 50.5 102t118.5 36t115 -35t47 -100q0 -63 -40 -104.5 t-108 -73.5l191 -189q54 76 54 177h-78v44h221z" />
<glyph unicode="'" horiz-adv-x="278" d="M164 654v-193h-50v193h50z" />
<glyph unicode="(" horiz-adv-x="278" d="M203 722h46q-138 -197 -138 -421q0 -220 138 -421h-46q-148 208 -148 421q0 108 40 220t108 201z" />
<glyph unicode=")" horiz-adv-x="278" d="M75 -120h-46q138 197 138 421q0 220 -138 421h46q148 -208 148 -421q0 -108 -40 -220t-108 -201z" />
<glyph unicode="*" horiz-adv-x="444" d="M206 522l-12 132h59l-15 -133l124 52l16 -56l-132 -26l88 -103l-49 -33l-63 118l-71 -116l-46 36l92 98l-131 31l18 56z" />
<glyph unicode="+" horiz-adv-x="600" d="M275 278v228h50v-228h227v-50h-227v-228h-50v228h-227v50h227z" />
<glyph unicode="," horiz-adv-x="250" d="M95 0v68h70v-68l-44 -125h-40l47 125h-33z" />
<glyph unicode="-" horiz-adv-x="333" d="M48 244v50h237v-50h-237z" />
<glyph unicode="." horiz-adv-x="250" d="M90 0v68h70v-68h-70z" />
<glyph unicode="/" horiz-adv-x="333" d="M12 -10l256 674h53l-256 -674h-53z" />
<glyph unicode="0" d="M406 337q0 283 -156 283t-156 -283q0 -37 2.5 -70.5t12 -78.5t25 -77t46 -54.5t70.5 -22.5t70.5 22.5t46 54.5t25 77t12 78.5t2.5 70.5zM462 337q0 -347 -212 -347t-212 347q0 50 4 91t17.5 87t36 77t62 51.5t92.5 20.5t92.5 -20.5t62 -51.5t36 -77t17.5 -87t4 -91z" />
<glyph unicode="1" d="M126 0v44h104v548q-59 -63 -162 -133v62q107 80 158 133h60v-610h100v-44h-260z" />
<glyph unicode="2" d="M35 0v73l152 147l109 108q34 35 63.5 79t29.5 76q0 67 -36 102t-104 35q-64 0 -101.5 -45.5t-39.5 -114.5h-56q0 92 57.5 148t147.5 56q83 0 135.5 -45.5t52.5 -126.5q0 -56 -38 -112t-133 -150l-189 -186h321v104h50v-148h-421z" />
<glyph unicode="3" d="M215 309v44h9q71 0 115 30q47 32 47 105q0 64 -37.5 98t-101.5 34q-62 0 -100 -39.5t-42 -103.5h-56q3 88 59 137.5t144 49.5q90 0 140 -47.5t50 -137.5q0 -58 -40 -98t-99 -50v-2q145 -25 145 -163q0 -85 -59.5 -130.5t-146.5 -45.5q-89 0 -143.5 50.5t-54.5 140.5h56 q0 -147 153 -147q58 0 98.5 39t40.5 97q0 139 -177 139z" />
<glyph unicode="4" d="M231 0v44h100v144h-311v66l295 400h72v-422h92v-44h-92v-144h90v-44h-246zM64 232h267v360h-2z" />
<glyph unicode="5" d="M440 654v-44h-307l-13 -277l2 -2q19 39 60.5 61.5t87.5 22.5q95 0 147 -58t52 -152q0 -95 -59.5 -155t-152.5 -60q-86 0 -142.5 48t-56.5 133h56q0 -61 41 -99t103 -38q73 0 114 49.5t41 120.5q0 75 -39 121t-109 46q-52 0 -90 -26t-53 -75h-56l10 384h364z" />
<glyph unicode="6" d="M447 495h-56q0 49 -32 87t-89 38q-36 0 -64 -14.5t-46.5 -42.5t-31 -57t-19.5 -68.5t-10 -66.5t-5 -61h2q21 53 61.5 79t92.5 26q101 0 153 -56.5t52 -150.5q0 -97 -56 -157.5t-149 -60.5q-52 0 -91 16.5t-61.5 42.5t-36.5 64.5t-18.5 75t-4.5 81.5q0 394 234 394 q80 0 128 -46q47 -44 47 -117v-6zM94 204q0 -74 43 -122t113 -48q71 0 110 48.5t39 125.5q0 74 -37.5 118.5t-111.5 44.5q-73 0 -114.5 -48.5t-41.5 -118.5z" />
<glyph unicode="7" d="M465 654v-68q-86 -139 -268 -586h-62q56 147 138 325t140 285h-331v-122h-50v166h433z" />
<glyph unicode="8" d="M100 180q0 -70 42 -108t108 -38q68 0 109 42.5t41 103.5q0 64 -41.5 99.5t-108.5 35.5q-66 0 -108 -35.5t-42 -99.5zM108 489q0 -63 40 -96.5t102 -33.5q66 0 104 34.5t38 98.5q0 62 -39 95t-103 33q-63 0 -102.5 -35.5t-39.5 -95.5zM52 498q0 81 59 123.5t139 42.5 q89 0 143.5 -41.5t54.5 -124.5q0 -61 -35 -105t-94 -54v-2q137 -35 137 -164q0 -91 -59.5 -137t-146.5 -46q-93 0 -149.5 48t-56.5 135q0 67 38.5 111.5t103.5 52.5v1q-134 29 -134 160z" />
<glyph unicode="9" d="M53 159h56q0 -49 32 -87t89 -38q36 0 64 14.5t46.5 42.5t31 57t19.5 68.5t10 66.5t5 61h-2q-21 -53 -61.5 -79t-92.5 -26q-101 0 -153 56.5t-52 150.5q0 97 56 157.5t149 60.5q52 0 91 -16.5t61.5 -42.5t36.5 -64.5t18.5 -75t4.5 -81.5q0 -394 -234 -394q-80 0 -128 46 q-47 44 -47 117v6zM250 620q-71 0 -110 -48.5t-39 -125.5q0 -74 37.5 -118.5t111.5 -44.5q73 0 114.5 48.5t41.5 118.5q0 74 -43 122t-113 48z" />
<glyph unicode=":" horiz-adv-x="250" d="M160 450v-68h-70v68h70zM90 0v68h70v-68h-70z" />
<glyph unicode=";" horiz-adv-x="250" d="M95 0v68h70v-68l-44 -125h-40l47 125h-33zM165 450v-68h-70v68h70z" />
<glyph unicode="&#x3c;" horiz-adv-x="600" d="M554 47v-55l-508 234v54l508 234v-55l-446 -206z" />
<glyph unicode="=" horiz-adv-x="600" d="M552 375v-50h-504v50h504zM552 181v-50h-504v50h504z" />
<glyph unicode="&#x3e;" horiz-adv-x="600" d="M46 47l446 206l-446 206v55l508 -234v-54l-508 -234v55z" />
<glyph unicode="?" horiz-adv-x="444" d="M88 484h-56q9 180 192 180q81 0 134.5 -44t53.5 -130q0 -45 -20.5 -79.5t-49.5 -58.5l-56 -50q-29 -25 -48 -66q-16 -37 -16 -85v-10h-56q0 55 13.5 96.5t34 64.5t44.5 44.5t44.5 37.5t34 42.5t13.5 59.5q0 61 -33.5 97.5t-97.5 36.5q-60 0 -94 -37t-37 -99zM163 0v62h62 v-62h-62z" />
<glyph unicode="@" horiz-adv-x="800" d="M264 264q0 -41 23 -67.5t57 -26.5q41 0 78 39t57 90t20 93q0 33 -23.5 61.5t-50.5 28.5q-66 0 -113.5 -72.5t-47.5 -145.5zM600 510l-89 -268q-8 -22 -8 -44v-8q1 -17 27 -20q50 0 95.5 72t45.5 145q0 104 -75 168.5t-180 64.5q-122 0 -204.5 -87t-82.5 -210 q0 -120 84.5 -204.5t204.5 -84.5q156 0 240 122h47q-89 -166 -287 -166q-148 0 -243.5 98.5t-95.5 241.5q0 137 99.5 235.5t235.5 98.5q129 0 218 -80t89 -200q0 -103 -66 -180.5t-141 -77.5q-58 0 -61 59h-3q-59 -59 -119 -59q-56 0 -89.5 38t-33.5 95q0 102 63 184.5 t158 82.5q69 0 99 -76l23 60h49z" />
<glyph unicode="A" horiz-adv-x="722" d="M491 274l-132 328l-135 -328h267zM12 0v44h60l253 610h73l248 -610h60v-44h-223v44h100l-75 186h-302l-76 -186h100v-44h-218z" />
<glyph unicode="B" horiz-adv-x="611" d="M172 308v-264h88q27 0 42.5 0.5t43.5 3t44.5 7t38 14.5t33.5 24.5t20.5 36.5t8.5 50q0 37 -12 62.5t-27 38t-42.5 19t-44 7.5t-46.5 1h-147zM172 610v-258h88q33 0 50.5 1t47.5 4t46.5 12t34.5 23.5t26 39.5t8 58q0 35 -13 58.5t-29.5 35.5t-49 18t-53.5 7t-61 1h-95z M26 0v44h90v566h-90v44h219q34 0 53 -0.5t54 -3.5t56 -9t48 -18t42 -29t26 -43.5t11 -60.5q0 -60 -35 -98.5t-95 -55.5v-2q71 -5 109.5 -45t38.5 -109q0 -37 -11.5 -66.5t-27.5 -48t-45 -32t-51.5 -19.5t-59.5 -9.5t-57 -4t-56 -0.5h-219z" />
<glyph unicode="C" horiz-adv-x="667" d="M560 565v89h50v-235h-51q-8 103 -56.5 152t-154.5 49q-65 0 -113.5 -26.5t-75.5 -71t-39.5 -96t-12.5 -109.5q0 -119 63 -201t174 -82q88 0 142 47.5t63 134.5h62q-9 -112 -82.5 -169t-188.5 -57q-141 0 -218 95.5t-77 236.5q0 156 80.5 249t230.5 93q135 0 202 -99h2z " />
<glyph unicode="D" horiz-adv-x="667" d="M24 0v44h90v566h-90v44h234q360 0 360 -319q0 -180 -91 -257.5t-269 -77.5h-234zM170 610v-566h78q155 0 231.5 67t76.5 224q0 148 -79 211.5t-229 63.5h-78z" />
<glyph unicode="E" horiz-adv-x="611" d="M20 0v44h90v566h-90v44h517v-204h-50v160h-321v-258h169v98h50v-246h-50v104h-169v-264h327v160h50v-204h-523z" />
<glyph unicode="F" horiz-adv-x="556" d="M22 0v44h90v566h-90v44h501v-194h-50v150h-305v-258h166v99h50v-246h-50v103h-166v-264h115v-44h-261z" />
<glyph unicode="G" horiz-adv-x="722" d="M566 556v98h50v-234h-50q-1 95 -57 147.5t-151 52.5q-66 0 -115.5 -24.5t-78.5 -67.5t-43 -95t-14 -113q0 -125 66.5 -205.5t185.5 -80.5q111 0 163 66q46 59 46 159v20h-108v44h249v-44h-85v-279h-56v102h-2q-40 -66 -97 -89t-143 -23q-85 0 -151 50t-98 124.5 t-32 155.5q0 148 83 246t226 98q64 0 122 -28t88 -80h2z" />
<glyph unicode="H" horiz-adv-x="722" d="M28 0v44h90v566h-90v44h246v-44h-100v-258h374v258h-100v44h246v-44h-90v-566h86v-44h-242v44h100v264h-374v-264h100v-44h-246z" />
<glyph unicode="I" horiz-adv-x="278" d="M21 0v44h90v566h-90v44h236v-44h-90v-566h90v-44h-236z" />
<glyph unicode="J" horiz-adv-x="444" d="M410 654v-44h-70v-342q0 -122 -11 -165q-25 -104 -135 -112q-10 -1 -20 -1q-93 0 -136 59q-35 49 -35 123q0 15 2 32h56v-17q0 -64 21 -106q24 -47 93 -47q20 0 36.5 4.5t27.5 15t19.5 20.5t13.5 28l7 30q3 12 4 34l1 34q1 6 1 15t-1 21v32v342h-105v44h231z" />
<glyph unicode="K" horiz-adv-x="611" d="M24 0v44h90v566h-90v44h236v-44h-90v-263l298 263h-90v44h214v-44h-53l-301 -265l308 -301h46v-44h-209v44h90l-303 296v-296h90v-44h-236z" />
<glyph unicode="L" horiz-adv-x="556" d="M26 0v44h90v566h-90v44h266v-44h-120v-566h302v150h50v-194h-498z" />
<glyph unicode="M" horiz-adv-x="888" d="M859 654v-44h-100v-566h100v-44h-246v44h90v566h-2l-232 -610h-50l-232 610h-2v-566h90v-44h-246v44h100v566h-100v44h198l217 -574l217 574h198z" />
<glyph unicode="N" horiz-adv-x="722" d="M24 0v44h84v566h-84v44h172l361 -610h1v566h-100v44h240v-44h-84v-610h-87l-361 610h-2v-566h100v-44h-240z" />
<glyph unicode="O" horiz-adv-x="722" d="M45 332q0 153 82 242.5t234 89.5q151 0 233.5 -89.5t82.5 -242.5q0 -155 -83 -248.5t-233 -93.5q-152 0 -234 93t-82 249zM107 332q0 -137 62 -217.5t192 -80.5q127 0 190.5 81t63.5 217q0 124 -64.5 206t-189.5 82q-128 0 -191 -81.5t-63 -206.5z" />
<glyph unicode="P" horiz-adv-x="556" d="M19 0v44h90v566h-90v44h250q44 0 76 -3t69 -14t60 -31t38.5 -55.5t15.5 -85.5q0 -100 -63.5 -145.5t-159.5 -45.5h-140v-230h120v-44h-266zM165 610v-292h104q24 0 39 1t42 4.5t44 13t35.5 25t27.5 42t9 61.5q0 46 -15 76.5t-43.5 44.5t-57 19t-66.5 5h-119z" />
<glyph unicode="Q" horiz-adv-x="722" d="M709 44v-44h-199q-57 0 -89 -5t-60 -5q-152 0 -234 93t-82 249q0 153 82 242.5t234 89.5q151 0 233.5 -89.5t82.5 -242.5q0 -96 -42 -172t-121 -117v-2q11 0 33 1.5t33 1.5h129zM361 34q127 0 190.5 81t63.5 217q0 124 -64.5 206t-189.5 82q-128 0 -191 -81.5t-63 -206.5 q0 -137 62 -217.5t192 -80.5z" />
<glyph unicode="R" horiz-adv-x="611" d="M22 0v44h90v566h-90v44h243q45 0 76.5 -2.5t71 -12t63 -27.5t40.5 -51.5t17 -80.5q0 -81 -37.5 -117t-109.5 -48v-2q29 -8 41 -12t25 -20t20.5 -35.5t23.5 -66.5l46 -135h53v-44h-102l-62 193q-12 39 -18.5 53.5t-23 28.5t-40 16.5t-69.5 2.5h-112v-250h90v-44h-236z M168 610v-272h109q33 0 56.5 2t51.5 10t45 22.5t29 42t12 65.5q0 36 -10.5 61t-26 38.5t-43.5 20.5t-51.5 8.5t-62.5 1.5h-109z" />
<glyph unicode="S" horiz-adv-x="556" d="M435 588v66h50v-216h-50v8q0 85 -39 128q-42 46 -131 46q-58 0 -101 -35.5t-43 -93.5q0 -47 39 -75.5t94.5 -43.5t111.5 -34t95 -61.5t39 -109.5q0 -80 -61.5 -128.5t-144.5 -48.5q-65 0 -109.5 21.5t-73.5 74.5h-2v-86h-50v216h50v-15q0 -68 42 -115q47 -52 126 -52 q64 0 112.5 34t48.5 99q0 43 -28 72.5t-70 44.5l-92 32q-49 17 -91 34.5t-70 53.5t-28 87q0 77 61.5 125t144.5 48q52 0 97.5 -18.5t70.5 -57.5h2z" />
<glyph unicode="T" horiz-adv-x="611" d="M167 0v44h110v566h-199v-150h-50v194h554v-194h-50v150h-199v-566h110v-44h-276z" />
<glyph unicode="U" horiz-adv-x="666" d="M10 610v44h241v-44h-105v-330q0 -55 8 -96.5t27.5 -77t57.5 -54t94 -18.5t94 18.5t57.5 54t27.5 77t8 96.5v330h-105v44h241v-44h-80v-330q0 -140 -54 -215t-189 -75t-189 75t-54 215v330h-80z" />
<glyph unicode="V" horiz-adv-x="667" d="M652 654v-44h-50l-233 -610h-68l-236 610h-50v44h197v-44h-90l213 -548l210 548h-92v44h199z" />
<glyph unicode="W" horiz-adv-x="889" d="M876 654v-44h-50l-147 -610h-76l-156 595h-2l-164 -595h-75l-143 610h-50v44h205v-44h-100l126 -548h2l158 592h82l155 -592h2l129 548h-100v44h204z" />
<glyph unicode="X" horiz-adv-x="667" d="M11 0v44h60l228 290l-211 276h-70v44h225v-44h-90l180 -235l182 235h-90v44h225v-44h-70l-215 -277l225 -289h60v-44h-221v44h95l-192 248l-196 -248h91v-44h-216z" />
<glyph unicode="Y" horiz-adv-x="611" d="M165 0v44h110v223l-216 343h-45v44h196v-44h-90l183 -292l189 292h-90v44h195v-44h-45l-221 -343v-223h110v-44h-276z" />
<glyph unicode="Z" horiz-adv-x="611" d="M52 0v60l436 550h-379v-136h-50v180h488v-57l-438 -553h400v136h50v-180h-507z" />
<glyph unicode="[" horiz-adv-x="278" d="M221 722v-38h-75v-766h75v-38h-125v842h125z" />
<glyph unicode="\" horiz-adv-x="333" d="M65 664l256 -674h-53l-256 674h53z" />
<glyph unicode="]" horiz-adv-x="278" d="M57 -120v38h75v766h-75v38h125v-842h-125z" />
<glyph unicode="^" horiz-adv-x="600" d="M102 201h-58l230 453h52l230 -453h-57l-200 393z" />
<glyph unicode="_" d="M0 -125v50h500v-50h-500z" />
<glyph unicode="`" horiz-adv-x="278" d="M30 648h78l90 -134h-52z" />
<glyph unicode="a" d="M363 0v90h-2q-19 -49 -65 -74.5t-103 -25.5q-72 0 -116 36.5t-44 107.5q0 36 16 62.5t38.5 40.5t57.5 21.5t61.5 9.5t60.5 2h96v33q0 119 -126 119q-119 0 -131 -97h-56q16 135 183 135q90 0 135 -36t45 -121v-265h68v-38h-118zM89 131q0 -47 33 -75t81 -28 q83 0 121.5 57.5t38.5 146.5h-104q-170 0 -170 -101z" />
<glyph unicode="b" horiz-adv-x="556" d="M17 0v38h78v578h-78v38h128v-293h2q22 45 66 72t95 27q106 0 158 -61.5t52 -169.5q0 -106 -53.5 -172.5t-156.5 -66.5q-57 0 -95.5 23.5t-66.5 74.5h-1v-88h-128zM145 221q0 -83 40.5 -138t119.5 -55q55 0 92 32.5t51 77.5t14 100q0 82 -41 133t-120 51q-77 0 -116.5 -60 t-39.5 -141z" />
<glyph unicode="c" d="M452 450v-165h-40q-4 62 -43.5 99.5t-103.5 37.5q-73 0 -116 -54t-43 -132q0 -86 40.5 -147t118.5 -61q56 0 97 34.5t46 89.5h50q0 -54 -33 -92.5t-76.5 -54t-90.5 -15.5q-100 0 -154 72.5t-54 168.5q0 99 55.5 164t152.5 65q48 0 89.5 -18.5t58.5 -54.5h2v63h44z" />
<glyph unicode="d" horiz-adv-x="556" d="M87 230q0 -91 39 -146.5t125 -55.5q82 0 117.5 58t35.5 148q0 83 -38 135.5t-118 52.5t-120.5 -55t-40.5 -137zM404 0v88h-2q-21 -45 -64 -71.5t-93 -26.5q-107 0 -160.5 65.5t-53.5 174.5q0 101 56 165.5t156 64.5q52 0 96 -24t63 -69h2v249h-80v38h130v-616h75v-38 h-125z" />
<glyph unicode="e" d="M465 216h-371q0 -85 42.5 -136.5t123.5 -51.5q55 0 97 28.5t51 81.5h50q-5 -70 -63.5 -109t-131.5 -39q-110 0 -167.5 63t-57.5 182q0 99 56.5 162t160.5 63q108 0 161 -68q49 -61 49 -158v-18zM94 254h315q-2 75 -43 121.5t-115 46.5q-69 0 -111 -48t-46 -120z" />
<glyph unicode="f" horiz-adv-x="278" d="M23 0v38h80v374h-80v38h80v48q0 166 148 166q17 0 49 -8v-44q-26 8 -49 8q-59 0 -78.5 -31t-19.5 -91v-48h110v-38h-110v-374h95v-38h-225z" />
<glyph unicode="g" horiz-adv-x="556" d="M538 450v-38h-77v-376q0 -106 -47.5 -158.5t-159.5 -52.5q-47 0 -86.5 11t-69.5 42.5t-30 79.5h50q8 -50 47 -72.5t93 -22.5q88 0 120.5 49t32.5 143v42h-2q-51 -91 -165 -91q-93 0 -149.5 64t-56.5 160q0 99 52.5 164.5t151.5 65.5q121 0 167 -90h2v80h127zM94 240 q0 -85 41.5 -140.5t119.5 -55.5q83 0 120 56t36 140q1 79 -40 130.5t-116 51.5t-118 -54t-43 -128z" />
<glyph unicode="h" horiz-adv-x="556" d="M22 0v38h80v578h-80v38h130v-274h2q20 38 58 59t83 21q34 0 60 -7.5t43 -17t28.5 -29t17.5 -33t9 -41.5t3 -41v-44v-17v-192h75v-38h-205v38h80v192v10q0 41 -1 60t-6.5 47t-17 40t-33.5 21q-21 8 -50 8h-6q-140 0 -140 -186v-192h80v-38h-210z" />
<glyph unicode="i" horiz-adv-x="278" d="M26 0v38h100v374h-100v38h150v-412h80v-38h-230zM176 629v-68h-62v68h62z" />
<glyph unicode="j" horiz-adv-x="222" d="M145 450v-414q0 -8 1 -36v-24.5v-14.5q-1 -10 -3 -34t-6 -34t-11.5 -26t-19 -23t-28.5 -13t-39 -6q-19 0 -59 6v40q27 -8 53 -8q39 0 50.5 26t11.5 90v433h-87v38h137zM145 629v-68h-62v68h62z" />
<glyph unicode="k" d="M15 0v38h80v578h-80v38h130v-436l229 194h-75v38h178v-38h-40l-153 -130l154 -244h46v-38h-168v38h62l-134 212l-99 -83v-129h74v-38h-204z" />
<glyph unicode="l" horiz-adv-x="222" d="M14 0v38h75v578h-75v38h125v-616h70v-38h-195z" />
<glyph unicode="m" horiz-adv-x="833" d="M22 0v38h80v374h-80v38h130v-77h2q17 40 54.5 63.5t85.5 23.5q54 0 88.5 -18.5t55.5 -67.5q48 86 136 86q96 0 129 -49t33 -143v-230h72v-38h-202v38h80v222q0 38 -3.5 62t-15 47.5t-36.5 35t-64 11.5q-64 0 -93.5 -45.5t-29.5 -110.5v-222h80v-38h-210v38h80v222 q0 30 -1.5 49t-7.5 41.5t-17 35t-32.5 21.5t-52.5 9q-123 0 -131 -156v-222h80v-38h-210z" />
<glyph unicode="n" horiz-adv-x="556" d="M22 0v38h80v374h-80v38h130v-70h2q20 38 58 59t83 21q34 0 60 -7.5t43 -17t28.5 -29t17.5 -33t9 -41.5t3 -41v-44v-17v-192h75v-38h-205v38h80v192v10q0 41 -1 60t-6.5 47t-17 40t-33.5 21q-21 8 -50 8h-6q-140 0 -140 -186v-192h80v-38h-210z" />
<glyph unicode="o" d="M36 225q0 106 58 170.5t156 64.5t156 -64.5t58 -170.5t-58 -170.5t-156 -64.5t-156 64.5t-58 170.5zM92 225q0 -59 17 -100.5t44 -61t50.5 -27.5t46.5 -8t46.5 8t50.5 27.5t44 61t17 100.5t-17 100.5t-44 61t-50.5 27.5t-46.5 8t-46.5 -8t-50.5 -27.5t-44 -61t-17 -100.5 z" />
<glyph unicode="p" horiz-adv-x="556" d="M17 -165v38h85v539h-85v38h135v-95h2q59 105 161 105q99 0 149 -64.5t50 -170.5q0 -93 -52 -164t-145 -71q-107 0 -163 100h-2v-217h85v-38h-220zM152 221q0 -77 38.5 -135t112.5 -58q76 0 116 58q39 58 39 135q0 84 -41 143q-40 58 -114 58q-51 0 -86.5 -32t-50 -75.5 t-14.5 -93.5z" />
<glyph unicode="q" horiz-adv-x="556" d="M529 450v-38h-85v-539h85v-38h-220v38h85v217h-2q-56 -100 -163 -100q-93 0 -145 71t-52 164q0 106 50 170.5t149 64.5q102 0 161 -105h2v95h135zM394 225q0 76 -38.5 136.5t-112.5 60.5t-114 -58q-41 -59 -41 -143q0 -77 39 -135q40 -58 116 -58q75 0 113 59t38 138z " />
<glyph unicode="r" horiz-adv-x="333" d="M21 0v38h74v374h-74v38h124v-89h2q11 45 44 72t76 27q24 0 37 -2v-46q-26 4 -36 4q-123 0 -123 -186v-192h99v-38h-223z" />
<glyph unicode="s" horiz-adv-x="444" d="M33 0v155h44q6 -59 45 -93t98 -34q53 0 90 24.5t37 74.5q0 37 -31.5 54.5t-76 23t-89.5 13.5t-76.5 35.5t-31.5 79.5q0 63 54.5 95t121.5 32q41 0 77.5 -16t54.5 -48h2v54h44v-146h-44q-7 118 -140 118q-46 0 -80 -23t-34 -67q0 -34 31.5 -51t76.5 -23t89.5 -15t76 -37.5 t31.5 -79.5q0 -67 -52.5 -101.5t-123.5 -34.5q-99 0 -147 78h-3v-68h-44z" />
<glyph unicode="t" horiz-adv-x="333" d="M296 450v-38h-149v-266q0 -56 11 -84t48 -28t50.5 25t13.5 78h50q0 -73 -26.5 -110t-92.5 -37q-104 0 -104 139v283h-84v38h84v107l50 19v-126h149z" />
<glyph unicode="u" horiz-adv-x="556" d="M445 450v-412h80v-38h-130v75h-2q-42 -85 -142 -85q-86 0 -123 37.5t-37 128.5v256h-75v38h125v-291q1 -67 29.5 -96t94.5 -29q60 0 93.5 41t36.5 103v234h-90v38h140z" />
<glyph unicode="v" d="M486 450v-38h-46l-160 -412h-68l-158 412h-46v38h173v-38h-70l134 -362h2l140 362h-70v38h169z" />
<glyph unicode="w" horiz-adv-x="778" d="M769 450v-38h-46l-139 -412h-66l-125 406h-2l-130 -406h-66l-134 412h-51v38h184v-38h-80l114 -368h2l131 406h65l130 -406h2l115 368h-80v38h176z" />
<glyph unicode="x" d="M5 0v38h46l165 193l-155 181h-46v38h182v-38h-70l121 -143l122 143h-70v38h179v-38h-46l-153 -181l164 -193h46v-38h-180v38h70l-132 156l-132 -156h70v-38h-181z" />
<glyph unicode="y" d="M486 450v-38h-40l-176 -431q-33 -85 -52 -110q-34 -46 -86 -46q-46 0 -68 3v40q18 -3 52 -3q17 0 32 8.5t24 17.5t20 32t15.5 34t15.5 41l-171 414h-40v38h172v-38h-75l140 -353l144 353h-75v38h168z" />
<glyph unicode="z" horiz-adv-x="444" d="M48 0v44l283 368h-226v-98h-50v136h334v-44l-283 -368h240v98h50v-136h-348z" />
<glyph unicode="{" horiz-adv-x="333" d="M293 722v-38h-48q-19 0 -29.5 -26.5t-10.5 -68.5v-131q0 -38 -8.5 -69t-21.5 -48.5t-23 -26.5t-17 -12v-2q8 -5 17 -13.5t22.5 -26.5t22 -49t8.5 -69v-129q0 -95 40 -95h48v-38h-60q-78 0 -78 115v130q0 157 -72 157v38q72 0 72 155v132q0 115 88 115h50z" />
<glyph unicode="|" horiz-adv-x="222" d="M86 750h50v-1000h-50v1000z" />
<glyph unicode="}" horiz-adv-x="333" d="M40 -120v38h48q19 0 29.5 26.5t10.5 68.5v131q0 38 8.5 69t21.5 48.5t23 26.5t17 12v2q-8 5 -17 13.5t-22.5 26.5t-22 49t-8.5 69v129q0 95 -40 95h-48v38h60q78 0 78 -115v-130q0 -157 72 -157v-38q-72 0 -72 -155v-132q0 -115 -88 -115h-50z" />
<glyph unicode="~" horiz-adv-x="600" d="M495 316l36 -36q-20 -27 -33 -42t-38 -29.5t-54 -14.5q-42 0 -102 33q-62 35 -115 35q-51 0 -84 -72l-36 36q45 86 125 86q39 0 111 -32l21 -10q15 -6 24 -10l20 -8q11 -4 20 -6t17 -2q19 0 36.5 12t27 24.5t24.5 35.5z" />
<glyph unicode="&#xa1;" horiz-adv-x="333" d="M132 -165l14 508h42l14 -508h-70zM198 485v-62h-62v62h62z" />
<glyph unicode="&#xa2;" d="M242 31v389q-63 -8 -99.5 -60.5t-36.5 -123.5q0 -50 13.5 -93t45 -74.5t77.5 -37.5zM242 544h38v-86q42 -3 76.5 -21t49.5 -50h2v63h44v-165h-40q-4 58 -39 95t-93 41v-392q52 5 88 38.5t40 84.5h50q0 -74 -53.5 -114.5t-124.5 -45.5v-93h-38v92q-93 6 -142.5 77 t-49.5 163q0 95 51 158.5t141 69.5v85z" />
<glyph unicode="&#xa3;" d="M19 0v44h80v295h-80v44h80v67q0 214 178 214q175 0 175 -157h-56q-4 61 -34 88q-27 25 -79 25h-8q-120 0 -120 -170v-67h125v-44h-125v-295h240v97h50v-141h-426z" />
<glyph unicode="&#xa4;" d="M21 132l50 53q-50 63 -50 142q0 87 52 142l-52 52l35 36l52 -51q62 51 144 51q80 0 141 -51l52 51l35 -36l-50 -50q50 -57 50 -144q0 -81 -49 -143l49 -52l-35 -35l-49 54q-61 -54 -144 -54q-84 0 -147 54l-49 -54zM71 327q0 -76 53 -128t128 -52q74 0 126 53t52 127 t-52 127t-126 53q-75 0 -128 -52.5t-53 -127.5z" />
<glyph unicode="&#xa5;" d="M522 654v-44h-40l-166 -273h136v-38h-159l-20 -32v-48h179v-38h-179v-137h100v-44h-250v44h100v137h-175v38h175v48l-20 32h-155v38h132l-162 273h-40v44h166v-44h-68l161 -273h24l163 273h-68v44h166z" />
<glyph unicode="&#xa6;" horiz-adv-x="222" d="M86 675h50v-350h-50v350zM86 175h50v-350h-50v350z" />
<glyph unicode="&#xa7;" d="M313 343l-98 43q-6 2 -14 6q-6 3 -7 3q-24 -4 -49.5 -32t-25.5 -67q0 -43 59 -66l99 -38q25 -10 33 -14q71 33 71 85q0 18 -4 31t-15.5 22t-20 13.5t-28.5 13.5zM426 501h-56q-5 65 -34.5 92t-93.5 27q-50 0 -83 -24.5t-33 -70.5t77 -79l135 -57q99 -41 99 -116 q0 -41 -27.5 -69.5t-69.5 -41.5v-2q91 -30 91 -114q0 -74 -52.5 -111t-130.5 -37q-84 0 -133.5 39.5t-49.5 121.5h56q0 -53 34 -85t88 -32q132 0 132 106q0 54 -108 94l-117 44q-87 33 -87 111q0 42 30 72t71 39v2q-94 37 -94 116q0 67 53.5 102.5t124.5 35.5 q80 0 129 -40.5t49 -122.5z" />
<glyph unicode="&#xa8;" horiz-adv-x="278" d="M187 554v68h62v-68h-62zM29 554v68h62v-68h-62z" />
<glyph unicode="&#xa9;" horiz-adv-x="800" d="M63 328q0 138 99.5 237t238.5 99t237.5 -99t98.5 -237q0 -140 -98.5 -239t-237.5 -99t-238.5 99t-99.5 239zM113 328q0 -125 82 -209.5t206 -84.5t205 84.5t81 209.5q0 123 -82 207.5t-204 84.5q-123 0 -205.5 -84t-82.5 -208zM580 399h-50q-8 41 -40.5 69t-80.5 28 q-71 0 -111.5 -48t-40.5 -119q0 -70 42.5 -121t111.5 -51q47 0 79.5 29t39.5 72h50q-14 -65 -60 -105t-109 -40q-91 0 -147.5 61.5t-56.5 153.5q0 93 54 152.5t147 59.5q68 0 115.5 -37.5t56.5 -103.5z" />
<glyph unicode="&#xaa;" horiz-adv-x="325" d="M228 388v54h-2q-9 -29 -37.5 -44.5t-66.5 -15.5q-47 0 -76.5 22t-29.5 64q0 87 155 87h57v17q0 60 -77 60q-74 0 -82 -49h-38q7 81 117 81q59 0 88.5 -21.5t29.5 -72.5v-150h44v-32h-82zM228 523h-63q-21 0 -35.5 -1.5t-32.5 -6.5t-27.5 -17t-9.5 -31q0 -24 19 -38.5 t50 -14.5q51 0 76 32q23 31 23 71v6z" />
<glyph unicode="&#xab;" horiz-adv-x="389" d="M139 32l-83 198l83 198h47l-84 -198l84 -198h-47zM292 32l-83 198l83 198h47l-84 -198l84 -198h-47z" />
<glyph unicode="&#xac;" horiz-adv-x="600" d="M502 108v217h-454v50h504v-267h-50z" />
<glyph unicode="&#xad;" horiz-adv-x="333" d="M48 244v50h237v-50h-237z" />
<glyph unicode="&#xae;" horiz-adv-x="800" d="M63 328q0 138 99.5 237t238.5 99t237.5 -99t98.5 -237q0 -140 -98.5 -239t-237.5 -99t-238.5 99t-99.5 239zM113 328q0 -125 82 -209.5t206 -84.5t205 84.5t81 209.5q0 123 -82 207.5t-204 84.5q-123 0 -205.5 -84t-82.5 -208zM273 127v397h156q133 0 133 -108 q0 -50 -29 -77t-74 -35l119 -177h-58l-112 177h-85v-177h-50zM323 486v-144h70q27 0 44.5 2t36.5 9t28.5 23t9.5 41q0 69 -94 69h-95z" />
<glyph unicode="&#xaf;" horiz-adv-x="278" d="M15 568v44h248v-44h-248z" />
<glyph unicode="&#xb0;" horiz-adv-x="400" d="M57 521q0 60 41.5 101.5t101.5 41.5q61 0 102 -41t41 -102t-41 -102t-102 -41q-60 0 -101.5 41.5t-41.5 101.5zM95 521q0 -47 29.5 -76t75.5 -29t75.5 29t29.5 76t-29.5 76t-75.5 29q-48 0 -76.5 -29t-28.5 -76z" />
<glyph unicode="&#xb1;" horiz-adv-x="600" d="M275 323v183h50v-183h227v-50h-227v-183h-50v183h-227v50h227zM48 0v50h504v-50h-504z" />
<glyph unicode="&#xb2;" horiz-adv-x="325" d="M25 265v50l99 88q1 1 12 11l16 14l14.5 14.5t15.5 16.5l15 16q10 11 15 18l11 18q7 11 10 19t5.5 17.5t2.5 18.5q0 66 -77 66q-36 0 -60 -26q-20 -22 -20 -56v-9h-50q0 57 38.5 90t96.5 33q55 0 88.5 -24.5t33.5 -73.5q0 -14 -4.5 -29t-9.5 -26.5t-17 -27t-18 -24 t-23 -25l-21 -20.5l-24 -20q-18 -17 -19 -18l-86 -77v-2h187v57h44v-89h-275z" />
<glyph unicode="&#xb3;" horiz-adv-x="325" d="M142 448v32h10q35 0 59 17q28 20 28 66q0 69 -73 69q-34 0 -56 -21.5t-24 -59.5h-50q3 55 38 84t92 29q52 0 87.5 -24.5t35.5 -74.5q0 -41 -24.5 -67.5t-66.5 -33.5v-2q94 -14 94 -89q0 -56 -36.5 -85t-91.5 -29q-131 0 -131 115h50q0 -83 81 -83q33 0 55.5 22.5 t22.5 59.5q0 75 -100 75z" />
<glyph unicode="&#xb4;" horiz-adv-x="278" d="M248 648l-116 -134h-52l90 134h78z" />
<glyph unicode="&#xb5;" horiz-adv-x="556" d="M445 450v-412h80v-38h-130v75h-2q-42 -85 -141 -85h-2q-76 0 -107 38h-2v-193h-50v577h-75v38h125v-291q1 -67 29.5 -96t94.5 -29q60 0 93.5 41t36.5 103v234h-90v38h140z" />
<glyph unicode="&#xb6;" horiz-adv-x="600" d="M289 654h217v-774h-50v730h-133v-730h-50v388q-87 0 -147 56t-60 134q0 94 58.5 145t164.5 51z" />
<glyph unicode="&#xb7;" horiz-adv-x="250" d="M69 279q0 23 16.5 39.5t39.5 16.5t39.5 -16.5t16.5 -39.5q0 -21 -16.5 -38.5t-38.5 -17.5q-23 0 -40 16.5t-17 39.5z" />
<glyph unicode="&#xb8;" horiz-adv-x="278" d="M171 0l-38 -52l2 -2q7 3 27 3q29 0 47 -21t18 -50q0 -36 -26.5 -54t-64.5 -18q-43 0 -99 23l19 31q38 -22 70 -22q51 0 51 41q0 38 -40 38q-26 0 -42 -6l-16 18l51 71h41z" />
<glyph unicode="&#xb9;" horiz-adv-x="325" d="M97 265v32h63v317q-34 -36 -101 -77v40q81 62 100 81h45v-361h63v-32h-170z" />
<glyph unicode="&#xba;" horiz-adv-x="325" d="M25 523q0 64 37.5 102.5t100.5 38.5t100.5 -38.5t37.5 -102.5t-37.5 -102.5t-100.5 -38.5t-100.5 38.5t-37.5 102.5zM69 523q0 -62 28.5 -85.5t65.5 -23.5t65.5 23t28.5 86q-1 63 -29 86t-65 23t-65.5 -23.5t-28.5 -85.5z" />
<glyph unicode="&#xbb;" horiz-adv-x="389" d="M250 428l83 -198l-83 -198h-47l84 198l-84 198h47zM97 428l83 -198l-83 -198h-47l84 198l-84 198h47z" />
<glyph unicode="&#xbc;" horiz-adv-x="750" d="M526 0v32h60v78h-200v42l192 241h52v-251h58v-32h-58v-78h57v-32h-161zM586 142v207h-2l-164 -207h166zM82 265v32h63v317q-34 -36 -101 -77v40q81 62 100 81h45v-361h63v-32h-170zM150 -18l404 690h40l-404 -690h-40z" />
<glyph unicode="&#xbd;" horiz-adv-x="750" d="M128 -18l404 690h40l-404 -690h-40zM72 265v32h63v317q-34 -36 -101 -77v40q81 62 100 81h45v-361h63v-32h-170zM422 0v50l99 88q1 1 13 12l14 13q4 3 15.5 14.5l16.5 16.5l14 16q10 11 14 18l12 18q7 11 10 19t5.5 17.5t2.5 18.5q0 66 -77 66q-36 0 -59 -25 q-21 -23 -21 -57v-9h-50q0 57 38.5 90t96.5 33q55 0 88.5 -24.5t33.5 -73.5q0 -14 -4.5 -29t-9.5 -26.5t-17 -27t-18 -24t-23 -25t-22 -20.5l-22 -21q-19 -16 -20 -17l-86 -77v-2h187v57h44v-89h-275z" />
<glyph unicode="&#xbe;" horiz-adv-x="750" d="M548 0v32h60v78h-200v42l192 241h52v-251h58v-32h-58v-78h57v-32h-161zM608 142v207h-2l-164 -207h166zM163 -18l404 690h40l-404 -690h-40zM131 448v32h10q35 0 59 17q28 20 28 66q0 69 -73 69q-34 0 -56 -21.5t-24 -59.5h-50q3 55 38 84t92 29q52 0 87.5 -24.5 t35.5 -74.5q0 -41 -24.5 -67.5t-65.5 -33.5v-2q93 -15 93 -89q0 -56 -36.5 -85t-91.5 -29q-131 0 -131 115h50q0 -83 81 -83q33 0 55.5 22.5t22.5 59.5q0 75 -100 75z" />
<glyph unicode="&#xbf;" horiz-adv-x="444" d="M356 5h56q-9 -180 -196 -180q-81 0 -132.5 43t-51.5 131q0 45 20.5 79.5t49.5 58.5l56 49q29 26 48 67q16 37 16 85v10h56q0 -55 -13.5 -96.5t-34 -64.5t-44.5 -44.5t-44.5 -37.5t-34 -42.5t-13.5 -59.5q0 -60 33.5 -97t97.5 -37q60 0 94 37t37 99zM281 485v-62h-62v62 h62z" />
<glyph unicode="&#xc0;" horiz-adv-x="722" d="M491 274l-132 328l-135 -328h267zM12 0v44h60l253 610h73l248 -610h60v-44h-223v44h100l-75 186h-302l-76 -186h100v-44h-218zM252 852h78l90 -134h-52z" />
<glyph unicode="&#xc1;" horiz-adv-x="722" d="M491 274l-132 328l-135 -328h267zM12 0v44h60l253 610h73l248 -610h60v-44h-223v44h100l-75 186h-302l-76 -186h100v-44h-218zM470 852l-116 -134h-52l90 134h78z" />
<glyph unicode="&#xc2;" horiz-adv-x="722" d="M491 274l-132 328l-135 -328h267zM12 0v44h60l253 610h73l248 -610h60v-44h-223v44h100l-75 186h-302l-76 -186h100v-44h-218zM228 718l104 134h62l97 -134h-58l-72 100l-75 -100h-58z" />
<glyph unicode="&#xc3;" horiz-adv-x="722" d="M491 274l-132 328l-135 -328h267zM12 0v44h60l253 610h73l248 -610h60v-44h-223v44h100l-75 186h-302l-76 -186h100v-44h-218zM462 828h40q-6 -38 -27 -62.5t-57 -24.5q-15 0 -63 22t-68 22q-14 0 -24.5 -12.5t-11.5 -27.5h-40q2 37 23.5 63.5t57.5 26.5q21 0 71 -22 q48 -22 67 -22q12 0 21 12t11 25z" />
<glyph unicode="&#xc4;" horiz-adv-x="722" d="M491 274l-132 328l-135 -328h267zM12 0v44h60l253 610h73l248 -610h60v-44h-223v44h100l-75 186h-302l-76 -186h100v-44h-218zM409 758v68h62v-68h-62zM251 758v68h62v-68h-62z" />
<glyph unicode="&#xc5;" horiz-adv-x="722" d="M491 274l-132 328l-135 -328h267zM12 0v44h60l253 610h73l248 -610h60v-44h-223v44h100l-75 186h-302l-76 -186h100v-44h-218zM268 791q0 38 27.5 65.5t65.5 27.5t65.5 -27.5t27.5 -65.5t-27.5 -65.5t-65.5 -27.5t-65.5 27.5t-27.5 65.5zM300 791q0 -25 18 -43t43 -18 t43 18t18 43t-18 43t-43 18t-43 -18t-18 -43z" />
<glyph unicode="&#xc6;" horiz-adv-x="944" d="M11 0v44h56l336 610h471v-180h-50v136h-328l38 -258h150v98h50v-230h-50v88h-144l39 -264h254v136h50v-180h-459v44h100l-28 186h-269l-103 -186h80v-44h-193zM490 274l-50 336h-2l-186 -336h238z" />
<glyph unicode="&#xc7;" horiz-adv-x="667" d="M560 565v89h50v-235h-51q-8 103 -56.5 152t-154.5 49q-65 0 -113.5 -26.5t-75.5 -71t-39.5 -96t-12.5 -109.5q0 -119 63 -201t174 -82q88 0 142 47.5t63 134.5h62q-8 -107 -76.5 -164t-175.5 -61l-31 -43l2 -2q8 3 27 3q29 0 47 -21t18 -50q0 -36 -26.5 -54t-64.5 -18 q-43 0 -99 23l19 31q39 -22 70 -22q51 0 51 41q0 38 -40 38q-26 0 -42 -6l-16 18l44 62q-130 8 -201.5 102t-71.5 229q0 156 80.5 249t230.5 93q135 0 202 -99h2z" />
<glyph unicode="&#xc8;" horiz-adv-x="611" d="M20 0v44h90v566h-90v44h517v-204h-50v160h-321v-258h169v98h50v-246h-50v104h-169v-264h327v160h50v-204h-523zM197 852h78l90 -134h-52z" />
<glyph unicode="&#xc9;" horiz-adv-x="611" d="M20 0v44h90v566h-90v44h517v-204h-50v160h-321v-258h169v98h50v-246h-50v104h-169v-264h327v160h50v-204h-523zM415 852l-116 -134h-52l90 134h78z" />
<glyph unicode="&#xca;" horiz-adv-x="611" d="M20 0v44h90v566h-90v44h517v-204h-50v160h-321v-258h169v98h50v-246h-50v104h-169v-264h327v160h50v-204h-523zM173 718l104 134h62l97 -134h-58l-72 100l-75 -100h-58z" />
<glyph unicode="&#xcb;" horiz-adv-x="611" d="M20 0v44h90v566h-90v44h517v-204h-50v160h-321v-258h169v98h50v-246h-50v104h-169v-264h327v160h50v-204h-523zM354 758v68h62v-68h-62zM196 758v68h62v-68h-62z" />
<glyph unicode="&#xcc;" horiz-adv-x="278" d="M21 0v44h90v566h-90v44h236v-44h-90v-566h90v-44h-236zM30 852h78l90 -134h-52z" />
<glyph unicode="&#xcd;" horiz-adv-x="278" d="M21 0v44h90v566h-90v44h236v-44h-90v-566h90v-44h-236zM248 852l-116 -134h-52l90 134h78z" />
<glyph unicode="&#xce;" horiz-adv-x="278" d="M21 0v44h90v566h-90v44h236v-44h-90v-566h90v-44h-236zM6 718l104 134h62l97 -134h-58l-72 100l-75 -100h-58z" />
<glyph unicode="&#xcf;" horiz-adv-x="278" d="M21 0v44h90v566h-90v44h236v-44h-90v-566h90v-44h-236zM187 758v68h62v-68h-62zM29 758v68h62v-68h-62z" />
<glyph unicode="&#xd0;" horiz-adv-x="667" d="M24 0v44h90v280h-90v44h90v242h-90v44h234q360 0 360 -319q0 -180 -91 -257.5t-269 -77.5h-234zM170 610v-242h181v-44h-181v-280h78q155 0 231.5 67t76.5 224q0 148 -79 211.5t-229 63.5h-78z" />
<glyph unicode="&#xd1;" horiz-adv-x="722" d="M24 0v44h84v566h-84v44h172l361 -610h1v566h-100v44h240v-44h-84v-610h-87l-361 610h-2v-566h100v-44h-240zM462 828h40q-6 -38 -27 -62.5t-57 -24.5q-15 0 -63 22t-68 22q-14 0 -24.5 -12.5t-11.5 -27.5h-40q2 37 23.5 63.5t57.5 26.5q21 0 71 -22q48 -22 67 -22 q12 0 21 12t11 25z" />
<glyph unicode="&#xd2;" horiz-adv-x="722" d="M45 332q0 153 82 242.5t234 89.5q151 0 233.5 -89.5t82.5 -242.5q0 -155 -83 -248.5t-233 -93.5q-152 0 -234 93t-82 249zM107 332q0 -137 62 -217.5t192 -80.5q127 0 190.5 81t63.5 217q0 124 -64.5 206t-189.5 82q-128 0 -191 -81.5t-63 -206.5zM252 852h78l90 -134 h-52z" />
<glyph unicode="&#xd3;" horiz-adv-x="722" d="M45 332q0 153 82 242.5t234 89.5q151 0 233.5 -89.5t82.5 -242.5q0 -155 -83 -248.5t-233 -93.5q-152 0 -234 93t-82 249zM107 332q0 -137 62 -217.5t192 -80.5q127 0 190.5 81t63.5 217q0 124 -64.5 206t-189.5 82q-128 0 -191 -81.5t-63 -206.5zM470 852l-116 -134h-52 l90 134h78z" />
<glyph unicode="&#xd4;" horiz-adv-x="722" d="M45 332q0 153 82 242.5t234 89.5q151 0 233.5 -89.5t82.5 -242.5q0 -155 -83 -248.5t-233 -93.5q-152 0 -234 93t-82 249zM107 332q0 -137 62 -217.5t192 -80.5q127 0 190.5 81t63.5 217q0 124 -64.5 206t-189.5 82q-128 0 -191 -81.5t-63 -206.5zM228 718l104 134h62 l97 -134h-58l-72 100l-75 -100h-58z" />
<glyph unicode="&#xd5;" horiz-adv-x="722" d="M45 332q0 153 82 242.5t234 89.5q151 0 233.5 -89.5t82.5 -242.5q0 -155 -83 -248.5t-233 -93.5q-152 0 -234 93t-82 249zM107 332q0 -137 62 -217.5t192 -80.5q127 0 190.5 81t63.5 217q0 124 -64.5 206t-189.5 82q-128 0 -191 -81.5t-63 -206.5zM462 828h40 q-6 -38 -27 -62.5t-57 -24.5q-15 0 -63 22t-68 22q-14 0 -24.5 -12.5t-11.5 -27.5h-40q2 37 23.5 63.5t57.5 26.5q21 0 71 -22q48 -22 67 -22q12 0 21 12t11 25z" />
<glyph unicode="&#xd6;" horiz-adv-x="722" d="M45 332q0 153 82 242.5t234 89.5q151 0 233.5 -89.5t82.5 -242.5q0 -155 -83 -248.5t-233 -93.5q-152 0 -234 93t-82 249zM107 332q0 -137 62 -217.5t192 -80.5q127 0 190.5 81t63.5 217q0 124 -64.5 206t-189.5 82q-128 0 -191 -81.5t-63 -206.5zM409 758v68h62v-68h-62 zM251 758v68h62v-68h-62z" />
<glyph unicode="&#xd7;" horiz-adv-x="600" d="M264 253l-190 190l36 36l189 -191l191 191l36 -36l-191 -190l191 -190l-36 -36l-191 191l-189 -191l-36 36z" />
<glyph unicode="&#xd8;" horiz-adv-x="722" d="M558 527l-374 -427q63 -66 177 -66q127 0 190.5 81t63.5 217q0 120 -57 195zM162 126l373 427q-67 67 -174 67q-128 0 -191 -81.5t-63 -206.5q0 -131 55 -206zM51 0l75 85q-81 92 -81 247q0 153 82 242.5t234 89.5q129 0 211 -69l72 82l25 -23l-72 -82q80 -88 80 -240 q0 -155 -83 -248.5t-233 -93.5q-129 0 -211 71l-74 -84z" />
<glyph unicode="&#xd9;" horiz-adv-x="666" d="M10 610v44h241v-44h-105v-330q0 -55 8 -96.5t27.5 -77t57.5 -54t94 -18.5t94 18.5t57.5 54t27.5 77t8 96.5v330h-105v44h241v-44h-80v-330q0 -140 -54 -215t-189 -75t-189 75t-54 215v330h-80zM224 852h78l90 -134h-52z" />
<glyph unicode="&#xda;" horiz-adv-x="666" d="M10 610v44h241v-44h-105v-330q0 -55 8 -96.5t27.5 -77t57.5 -54t94 -18.5t94 18.5t57.5 54t27.5 77t8 96.5v330h-105v44h241v-44h-80v-330q0 -140 -54 -215t-189 -75t-189 75t-54 215v330h-80zM442 852l-116 -134h-52l90 134h78z" />
<glyph unicode="&#xdb;" horiz-adv-x="666" d="M10 610v44h241v-44h-105v-330q0 -55 8 -96.5t27.5 -77t57.5 -54t94 -18.5t94 18.5t57.5 54t27.5 77t8 96.5v330h-105v44h241v-44h-80v-330q0 -140 -54 -215t-189 -75t-189 75t-54 215v330h-80zM200 718l104 134h62l97 -134h-58l-72 100l-75 -100h-58z" />
<glyph unicode="&#xdc;" horiz-adv-x="666" d="M10 610v44h241v-44h-105v-330q0 -55 8 -96.5t27.5 -77t57.5 -54t94 -18.5t94 18.5t57.5 54t27.5 77t8 96.5v330h-105v44h241v-44h-80v-330q0 -140 -54 -215t-189 -75t-189 75t-54 215v330h-80zM381 758v68h62v-68h-62zM223 758v68h62v-68h-62z" />
<glyph unicode="&#xdd;" horiz-adv-x="611" d="M165 0v44h110v223l-216 343h-45v44h196v-44h-90l183 -292l189 292h-90v44h195v-44h-45l-221 -343v-223h110v-44h-276zM415 852l-116 -134h-52l90 134h78z" />
<glyph unicode="&#xde;" horiz-adv-x="556" d="M19 0v44h90v566h-90v44h266v-44h-120v-86h104q44 0 76 -3t69 -14t60 -31t38.5 -55.5t15.5 -85.5q0 -100 -63.5 -145.5t-159.5 -45.5h-140v-100h120v-44h-266zM165 480v-292h104q24 0 39 1t42 4.5t44 13t35.5 25t27.5 42t9 61.5q0 46 -15 76.5t-43.5 44.5t-57 19t-66.5 5 h-119z" />
<glyph unicode="&#xdf;" d="M19 0v38h62v422q0 96 45.5 150t140.5 54q73 0 123.5 -41t50.5 -114q0 -64 -37 -104.5t-101 -49.5v-2q80 -14 121.5 -53.5t41.5 -117.5q0 -95 -59 -142q-50 -41 -128 -41q-13 0 -27 1v38q77 0 117 34.5t41 113.5q0 135 -162 142v50q137 3 137 124q0 60 -31 92t-90 32 q-133 0 -133 -176v-412h51v-38h-163z" />
<glyph unicode="&#xe0;" d="M363 0v90h-2q-19 -49 -65 -74.5t-103 -25.5q-72 0 -116 36.5t-44 107.5q0 36 16 62.5t38.5 40.5t57.5 21.5t61.5 9.5t60.5 2h96v33q0 119 -126 119q-119 0 -131 -97h-56q16 135 183 135q90 0 135 -36t45 -121v-265h68v-38h-118zM89 131q0 -47 33 -75t81 -28 q83 0 121.5 57.5t38.5 146.5h-104q-170 0 -170 -101zM141 648h78l90 -134h-52z" />
<glyph unicode="&#xe1;" d="M363 0v90h-2q-19 -49 -65 -74.5t-103 -25.5q-72 0 -116 36.5t-44 107.5q0 36 16 62.5t38.5 40.5t57.5 21.5t61.5 9.5t60.5 2h96v33q0 119 -126 119q-119 0 -131 -97h-56q16 135 183 135q90 0 135 -36t45 -121v-265h68v-38h-118zM89 131q0 -47 33 -75t81 -28 q83 0 121.5 57.5t38.5 146.5h-104q-170 0 -170 -101zM359 648l-116 -134h-52l90 134h78z" />
<glyph unicode="&#xe2;" d="M363 0v90h-2q-19 -49 -65 -74.5t-103 -25.5q-72 0 -116 36.5t-44 107.5q0 36 16 62.5t38.5 40.5t57.5 21.5t61.5 9.5t60.5 2h96v33q0 119 -126 119q-119 0 -131 -97h-56q16 135 183 135q90 0 135 -36t45 -121v-265h68v-38h-118zM89 131q0 -47 33 -75t81 -28 q83 0 121.5 57.5t38.5 146.5h-104q-170 0 -170 -101zM117 514l104 134h62l97 -134h-58l-72 100l-75 -100h-58z" />
<glyph unicode="&#xe3;" d="M363 0v90h-2q-19 -49 -65 -74.5t-103 -25.5q-72 0 -116 36.5t-44 107.5q0 36 16 62.5t38.5 40.5t57.5 21.5t61.5 9.5t60.5 2h96v33q0 119 -126 119q-119 0 -131 -97h-56q16 135 183 135q90 0 135 -36t45 -121v-265h68v-38h-118zM89 131q0 -47 33 -75t81 -28 q83 0 121.5 57.5t38.5 146.5h-104q-170 0 -170 -101zM351 624h40q-6 -38 -27 -62.5t-57 -24.5q-15 0 -63 22t-68 22q-14 0 -24.5 -12.5t-11.5 -27.5h-40q2 37 23.5 63.5t57.5 26.5q21 0 71 -22q48 -22 67 -22q12 0 21 12t11 25z" />
<glyph unicode="&#xe4;" d="M363 0v90h-2q-19 -49 -65 -74.5t-103 -25.5q-72 0 -116 36.5t-44 107.5q0 36 16 62.5t38.5 40.5t57.5 21.5t61.5 9.5t60.5 2h96v33q0 119 -126 119q-119 0 -131 -97h-56q16 135 183 135q90 0 135 -36t45 -121v-265h68v-38h-118zM89 131q0 -47 33 -75t81 -28 q83 0 121.5 57.5t38.5 146.5h-104q-170 0 -170 -101zM298 554v68h62v-68h-62zM140 554v68h62v-68h-62z" />
<glyph unicode="&#xe5;" d="M363 0v90h-2q-19 -49 -65 -74.5t-103 -25.5q-72 0 -116 36.5t-44 107.5q0 36 16 62.5t38.5 40.5t57.5 21.5t61.5 9.5t60.5 2h96v33q0 119 -126 119q-119 0 -131 -97h-56q16 135 183 135q90 0 135 -36t45 -121v-265h68v-38h-118zM89 131q0 -47 33 -75t81 -28 q83 0 121.5 57.5t38.5 146.5h-104q-170 0 -170 -101zM157 587q0 38 27.5 65.5t65.5 27.5t65.5 -27.5t27.5 -65.5t-27.5 -65.5t-65.5 -27.5t-65.5 27.5t-27.5 65.5zM189 587q0 -25 17.5 -43t43.5 -18t43.5 18t17.5 43t-17.5 43t-43.5 18t-43.5 -18t-17.5 -43z" />
<glyph unicode="&#xe6;" horiz-adv-x="722" d="M696 216h-313q8 -188 138 -188q48 0 80.5 32t36.5 79h50q-5 -70 -53 -109.5t-118 -39.5q-67 0 -106.5 29t-61.5 90q-51 -119 -166 -119q-69 0 -112 34.5t-43 101.5q0 36 15.5 61.5t36 38t52.5 19.5t50.5 8t45.5 1h99q0 33 -0.5 48.5t-3.5 39.5t-10 35t-19 23.5t-31.5 17 t-46.5 4.5q-46 0 -76 -26.5t-34 -73.5h-56q5 71 53.5 104.5t123.5 33.5q53 0 92.5 -23t47.5 -71h2q41 94 152 94q53 0 89.5 -20t54 -57t24.5 -76.5t7 -90.5zM327 216h-95q-148 0 -148 -92q0 -48 27.5 -72t74.5 -24t80.5 30t47.5 72q13 38 13 80v6zM383 254h257v10 q0 158 -119 158q-62 0 -99.5 -51t-38.5 -117z" />
<glyph unicode="&#xe7;" d="M452 450v-165h-40q-4 62 -43.5 99.5t-103.5 37.5q-73 0 -116 -54t-43 -132q0 -86 40.5 -147t118.5 -61q56 0 97 34.5t46 89.5h50q0 -51 -29 -88t-68.5 -53.5t-84.5 -19.5l-32 -43l2 -2q8 3 27 3q29 0 47 -21t18 -50q0 -36 -26.5 -54t-64.5 -18q-43 0 -99 23l19 31 q39 -22 70 -22q51 0 51 41q0 38 -40 38q-26 0 -42 -6l-16 18l45 62q-89 9 -137 79.5t-48 160.5q0 99 55.5 164t152.5 65q48 0 89.5 -18.5t58.5 -54.5h2v63h44z" />
<glyph unicode="&#xe8;" d="M465 216h-371q0 -85 42.5 -136.5t123.5 -51.5q55 0 97 28.5t51 81.5h50q-5 -70 -63.5 -109t-131.5 -39q-110 0 -167.5 63t-57.5 182q0 99 56.5 162t160.5 63q108 0 161 -68q49 -61 49 -158v-18zM94 254h315q-2 75 -43 121.5t-115 46.5q-69 0 -111 -48t-46 -120zM141 648 h78l90 -134h-52z" />
<glyph unicode="&#xe9;" d="M465 216h-371q0 -85 42.5 -136.5t123.5 -51.5q55 0 97 28.5t51 81.5h50q-5 -70 -63.5 -109t-131.5 -39q-110 0 -167.5 63t-57.5 182q0 99 56.5 162t160.5 63q108 0 161 -68q49 -61 49 -158v-18zM94 254h315q-2 75 -43 121.5t-115 46.5q-69 0 -111 -48t-46 -120zM359 648 l-116 -134h-52l90 134h78z" />
<glyph unicode="&#xea;" d="M465 216h-371q0 -85 42.5 -136.5t123.5 -51.5q55 0 97 28.5t51 81.5h50q-5 -70 -63.5 -109t-131.5 -39q-110 0 -167.5 63t-57.5 182q0 99 56.5 162t160.5 63q108 0 161 -68q49 -61 49 -158v-18zM94 254h315q-2 75 -43 121.5t-115 46.5q-69 0 -111 -48t-46 -120zM117 514 l104 134h62l97 -134h-58l-72 100l-75 -100h-58z" />
<glyph unicode="&#xeb;" d="M465 216h-371q0 -85 42.5 -136.5t123.5 -51.5q55 0 97 28.5t51 81.5h50q-5 -70 -63.5 -109t-131.5 -39q-110 0 -167.5 63t-57.5 182q0 99 56.5 162t160.5 63q108 0 161 -68q49 -61 49 -158v-18zM94 254h315q-2 75 -43 121.5t-115 46.5q-69 0 -111 -48t-46 -120zM298 554 v68h62v-68h-62zM140 554v68h62v-68h-62z" />
<glyph unicode="&#xec;" horiz-adv-x="278" d="M26 0v38h100v374h-100v38h150v-412h80v-38h-230zM30 648h78l90 -134h-52z" />
<glyph unicode="&#xed;" horiz-adv-x="278" d="M26 0v38h100v374h-100v38h150v-412h80v-38h-230zM248 648l-116 -134h-52l90 134h78z" />
<glyph unicode="&#xee;" horiz-adv-x="278" d="M26 0v38h100v374h-100v38h150v-412h80v-38h-230zM6 514l104 134h62l97 -134h-58l-72 100l-75 -100h-58z" />
<glyph unicode="&#xef;" horiz-adv-x="278" d="M26 0v38h100v374h-100v38h150v-412h80v-38h-230zM187 554v68h62v-68h-62zM29 554v68h62v-68h-62z" />
<glyph unicode="&#xf0;" d="M92 225q0 -59 17 -100.5t44 -61t50.5 -27.5t46.5 -8t46.5 8t50.5 27.5t44 61t17 100.5t-17 100.5t-44 61t-50.5 27.5t-46.5 8t-46.5 -8t-50.5 -27.5t-44 -61t-17 -100.5zM370 664l27 -26l-103 -52q170 -153 170 -329q0 -127 -57 -197t-157 -70q-98 0 -156 64.5t-58 170.5 t58.5 170.5t157.5 64.5q74 -6 124 -54l7 -6l2 2q-43 84 -133 163l-96 -49l-27 26l93 47q-19 17 -81 65l33 24q45 -28 92 -67z" />
<glyph unicode="&#xf1;" horiz-adv-x="556" d="M22 0v38h80v374h-80v38h130v-70h2q20 38 58 59t83 21q34 0 60 -7.5t43 -17t28.5 -29t17.5 -33t9 -41.5t3 -41v-44v-17v-192h75v-38h-205v38h80v192v10q0 41 -1 60t-6.5 47t-17 40t-33.5 21q-21 8 -50 8h-6q-140 0 -140 -186v-192h80v-38h-210zM379 624h40 q-6 -38 -27 -62.5t-57 -24.5q-15 0 -63 22t-68 22q-14 0 -24.5 -12.5t-11.5 -27.5h-40q2 37 23.5 63.5t57.5 26.5q21 0 71 -22q48 -22 67 -22q12 0 21 12t11 25z" />
<glyph unicode="&#xf2;" d="M36 225q0 106 58 170.5t156 64.5t156 -64.5t58 -170.5t-58 -170.5t-156 -64.5t-156 64.5t-58 170.5zM92 225q0 -59 17 -100.5t44 -61t50.5 -27.5t46.5 -8t46.5 8t50.5 27.5t44 61t17 100.5t-17 100.5t-44 61t-50.5 27.5t-46.5 8t-46.5 -8t-50.5 -27.5t-44 -61t-17 -100.5 zM141 648h78l90 -134h-52z" />
<glyph unicode="&#xf3;" d="M36 225q0 106 58 170.5t156 64.5t156 -64.5t58 -170.5t-58 -170.5t-156 -64.5t-156 64.5t-58 170.5zM92 225q0 -59 17 -100.5t44 -61t50.5 -27.5t46.5 -8t46.5 8t50.5 27.5t44 61t17 100.5t-17 100.5t-44 61t-50.5 27.5t-46.5 8t-46.5 -8t-50.5 -27.5t-44 -61t-17 -100.5 zM359 648l-116 -134h-52l90 134h78z" />
<glyph unicode="&#xf4;" d="M36 225q0 106 58 170.5t156 64.5t156 -64.5t58 -170.5t-58 -170.5t-156 -64.5t-156 64.5t-58 170.5zM92 225q0 -59 17 -100.5t44 -61t50.5 -27.5t46.5 -8t46.5 8t50.5 27.5t44 61t17 100.5t-17 100.5t-44 61t-50.5 27.5t-46.5 8t-46.5 -8t-50.5 -27.5t-44 -61t-17 -100.5 zM117 514l104 134h62l97 -134h-58l-72 100l-75 -100h-58z" />
<glyph unicode="&#xf5;" d="M36 225q0 106 58 170.5t156 64.5t156 -64.5t58 -170.5t-58 -170.5t-156 -64.5t-156 64.5t-58 170.5zM92 225q0 -59 17 -100.5t44 -61t50.5 -27.5t46.5 -8t46.5 8t50.5 27.5t44 61t17 100.5t-17 100.5t-44 61t-50.5 27.5t-46.5 8t-46.5 -8t-50.5 -27.5t-44 -61t-17 -100.5 zM351 624h40q-6 -38 -27 -62.5t-57 -24.5q-15 0 -63 22t-68 22q-14 0 -24.5 -12.5t-11.5 -27.5h-40q2 37 23.5 63.5t57.5 26.5q21 0 71 -22q48 -22 67 -22q12 0 21 12t11 25z" />
<glyph unicode="&#xf6;" d="M36 225q0 106 58 170.5t156 64.5t156 -64.5t58 -170.5t-58 -170.5t-156 -64.5t-156 64.5t-58 170.5zM92 225q0 -59 17 -100.5t44 -61t50.5 -27.5t46.5 -8t46.5 8t50.5 27.5t44 61t17 100.5t-17 100.5t-44 61t-50.5 27.5t-46.5 8t-46.5 -8t-50.5 -27.5t-44 -61t-17 -100.5 zM298 554v68h62v-68h-62zM140 554v68h62v-68h-62z" />
<glyph unicode="&#xf7;" horiz-adv-x="600" d="M552 228h-504v50h504v-50zM244 460q0 23 16.5 39.5t39.5 16.5q22 0 39 -17t17 -39q0 -21 -17 -38.5t-38 -17.5q-23 0 -40 16.5t-17 39.5zM244 46q0 23 16.5 39.5t39.5 16.5q22 0 39 -17t17 -39q0 -21 -17 -38.5t-38 -17.5q-23 0 -40 16.5t-17 39.5z" />
<glyph unicode="&#xf8;" d="M441 481l24 -21l-57 -67q56 -62 56 -168t-58 -170.5t-156 -64.5q-85 0 -140 49l-52 -62l-26 18l56 66q-52 63 -52 164q0 106 58 170.5t156 64.5q82 0 136 -45zM375 354l-233 -278q42 -48 108 -48q23 0 46.5 8t50.5 27.5t44 61t17 100.5q0 79 -33 129zM122 101l233 277 q-42 44 -105 44q-23 0 -46.5 -8t-50.5 -27.5t-44 -61t-17 -100.5q0 -77 30 -124z" />
<glyph unicode="&#xf9;" horiz-adv-x="556" d="M445 450v-412h80v-38h-130v75h-2q-42 -85 -142 -85q-86 0 -123 37.5t-37 128.5v256h-75v38h125v-291q1 -67 29.5 -96t94.5 -29q60 0 93.5 41t36.5 103v234h-90v38h140zM169 648h78l90 -134h-52z" />
<glyph unicode="&#xfa;" horiz-adv-x="556" d="M445 450v-412h80v-38h-130v75h-2q-42 -85 -142 -85q-86 0 -123 37.5t-37 128.5v256h-75v38h125v-291q1 -67 29.5 -96t94.5 -29q60 0 93.5 41t36.5 103v234h-90v38h140zM387 648l-116 -134h-52l90 134h78z" />
<glyph unicode="&#xfb;" horiz-adv-x="556" d="M445 450v-412h80v-38h-130v75h-2q-42 -85 -142 -85q-86 0 -123 37.5t-37 128.5v256h-75v38h125v-291q1 -67 29.5 -96t94.5 -29q60 0 93.5 41t36.5 103v234h-90v38h140zM145 514l104 134h62l97 -134h-58l-72 100l-75 -100h-58z" />
<glyph unicode="&#xfc;" horiz-adv-x="556" d="M445 450v-412h80v-38h-130v75h-2q-42 -85 -142 -85q-86 0 -123 37.5t-37 128.5v256h-75v38h125v-291q1 -67 29.5 -96t94.5 -29q60 0 93.5 41t36.5 103v234h-90v38h140zM326 554v68h62v-68h-62zM168 554v68h62v-68h-62z" />
<glyph unicode="&#xfd;" d="M486 450v-38h-40l-176 -431q-33 -85 -52 -110q-34 -46 -86 -46q-46 0 -68 3v40q18 -3 52 -3q17 0 32 8.5t24 17.5t20 32t15.5 34t15.5 41l-171 414h-40v38h172v-38h-75l140 -353l144 353h-75v38h168zM359 648l-116 -134h-52l90 134h78z" />
<glyph unicode="&#xfe;" horiz-adv-x="556" d="M17 -165v38h85v743h-85v38h135v-299h2q59 105 161 105q99 0 149 -64.5t50 -170.5q0 -93 -52 -164t-145 -71q-107 0 -162 100h-3v-217h85v-38h-220zM152 221q0 -77 38.5 -135t112.5 -58q76 0 116 58q39 58 39 135q0 84 -41 143q-40 58 -114 58q-51 0 -86.5 -32t-50 -75.5 t-14.5 -93.5z" />
<glyph unicode="&#xff;" d="M486 450v-38h-40l-176 -431q-33 -85 -52 -110q-34 -46 -86 -46q-46 0 -68 3v40q18 -3 52 -3q17 0 32 8.5t24 17.5t20 32t15.5 34t15.5 41l-171 414h-40v38h172v-38h-75l140 -353l144 353h-75v38h168zM298 554v68h62v-68h-62zM140 554v68h62v-68h-62z" />
<glyph unicode="&#x152;" horiz-adv-x="944" d="M874 654v-181h-50v137h-289v-258h148v90h50v-228h-50v94h-148v-264h296v137h50v-181h-372q-36 0 -79 -5q-65 -5 -78 -5q-151 0 -229 90t-78 245q0 150 83 244.5t231 94.5q23 0 75 -6q39 -4 65 -5q8 0 15 1h360zM479 44v566q-17 0 -53 5t-55 5q-135 0 -199.5 -76.5 t-64.5 -217.5q0 -292 262 -292q36 0 110 10z" />
<glyph unicode="&#x153;" horiz-adv-x="778" d="M747 216h-312q6 -188 137 -188q49 0 82 31.5t37 79.5h50q-5 -70 -53 -109.5t-120 -39.5q-128 0 -163 128h-2q-46 -128 -167 -128q-91 0 -147.5 65t-56.5 170t56.5 170t147.5 65q67 -2 112.5 -37.5t56.5 -97.5h2q37 135 161 135q55 0 92 -20t55 -57t25 -76.5t7 -90.5z M88 225q0 -57 14 -97.5t37 -61t46 -29.5t49 -9q74 0 109.5 61.5t35.5 145.5q0 79 -35.5 132.5t-109.5 54.5q-22 0 -44 -7.5t-47 -26.5t-40 -61t-15 -102zM435 254h256q0 168 -119 168q-63 0 -100 -51t-37 -117z" />
<glyph unicode="&#x178;" horiz-adv-x="611" d="M165 0v44h110v223l-216 343h-45v44h196v-44h-90l183 -292l189 292h-90v44h195v-44h-45l-221 -343v-223h110v-44h-276zM354 758v68h62v-68h-62zM196 758v68h62v-68h-62z" />
<glyph unicode="&#x2c6;" horiz-adv-x="278" d="M6 514l104 134h62l97 -134h-58l-72 100l-75 -100h-58z" />
<glyph unicode="&#x2dc;" horiz-adv-x="278" d="M240 624h40q-6 -38 -27 -62.5t-57 -24.5q-15 0 -63 22t-68 22q-14 0 -24.5 -12.5t-11.5 -27.5h-40q2 37 23.5 63.5t57.5 26.5q21 0 71 -22q48 -22 67 -22q12 0 21 12t11 25z" />
<glyph unicode="&#x2000;" horiz-adv-x="442" />
<glyph unicode="&#x2001;" horiz-adv-x="884" />
<glyph unicode="&#x2002;" horiz-adv-x="442" />
<glyph unicode="&#x2003;" horiz-adv-x="884" />
<glyph unicode="&#x2004;" horiz-adv-x="294" />
<glyph unicode="&#x2005;" horiz-adv-x="221" />
<glyph unicode="&#x2006;" horiz-adv-x="147" />
<glyph unicode="&#x2007;" horiz-adv-x="147" />
<glyph unicode="&#x2008;" horiz-adv-x="110" />
<glyph unicode="&#x2009;" horiz-adv-x="176" />
<glyph unicode="&#x200a;" horiz-adv-x="49" />
<glyph unicode="&#x2010;" horiz-adv-x="333" d="M48 244v50h237v-50h-237z" />
<glyph unicode="&#x2011;" horiz-adv-x="333" d="M48 244v50h237v-50h-237z" />
<glyph unicode="&#x2013;" d="M0 250v38h500v-38h-500z" />
<glyph unicode="&#x2014;" horiz-adv-x="1000" d="M0 250v38h1000v-38h-1000z" />
<glyph unicode="&#x2018;" horiz-adv-x="278" d="M106 461v68l44 125h40l-47 -125h33v-68h-70z" />
<glyph unicode="&#x2019;" horiz-adv-x="278" d="M172 654v-68l-44 -125h-40l47 125h-33v68h70z" />
<glyph unicode="&#x201a;" horiz-adv-x="278" d="M172 68v-68l-44 -125h-40l47 125h-33v68h70z" />
<glyph unicode="&#x201c;" horiz-adv-x="389" d="M237 461v68l44 125h40l-47 -125h33v-68h-70zM80 461v68l44 125h40l-47 -125h33v-68h-70z" />
<glyph unicode="&#x201d;" horiz-adv-x="389" d="M152 654v-68l-44 -125h-40l47 125h-33v68h70zM309 654v-68l-44 -125h-40l47 125h-33v68h70z" />
<glyph unicode="&#x201e;" horiz-adv-x="389" d="M152 68v-68l-44 -125h-40l47 125h-33v68h70zM309 68v-68l-44 -125h-40l47 125h-33v68h70z" />
<glyph unicode="&#x2022;" d="M86 327q0 67 48 115.5t116 48.5q67 0 115 -48t48 -116q0 -67 -47.5 -115t-115.5 -48t-116 48t-48 115z" />
<glyph unicode="&#x2026;" horiz-adv-x="1000" d="M132 0v68h70v-68h-70zM465 0v68h70v-68h-70zM798 0v68h70v-68h-70z" />
<glyph unicode="&#x202f;" horiz-adv-x="176" />
<glyph unicode="&#x2039;" horiz-adv-x="278" d="M150 32l-83 198l83 198h47l-84 -198l84 -198h-47z" />
<glyph unicode="&#x203a;" horiz-adv-x="278" d="M128 428l83 -198l-83 -198h-47l84 198l-84 198h47z" />
<glyph unicode="&#x205f;" horiz-adv-x="221" />
<glyph unicode="&#x20ac;" d="M402 554q-30 65 -103 65q-137 0 -156 -211h272l-14 -42h-261q-1 -10 -1 -39q0 -7 0.5 -20t0.5 -18h235l-15 -42h-216q22 -213 155 -213q35 0 66 11t47 22.5t37 30.5v-54q-58 -53 -156 -53q-93 0 -142 61.5t-63 194.5h-62l15 42h45q-2 18 -2 38q0 7 0.5 20.5t0.5 18.5h-59 l15 42h46q12 121 58.5 188t148.5 67q64 0 108 -46v37h50v-100h-50z" />
<glyph unicode="&#x2122;" horiz-adv-x="990" d="M402 654v-44h-135v-368h-50v368h-135v44h320zM908 654v-412h-50v368h-2l-149 -368h-30l-149 368h-2v-368h-50v412h85l133 -332l129 332h85z" />
</font>
</defs>
</svg>
